<svg width="305" height="351" viewBox="0 0 305 351" fill="none" xmlns="http://www.w3.org/2000/svg">
<g filter="url(#filter0_dd_2004_4773)">
<mask id="path-1-inside-1_2004_4773" fill="white">
<path fill-rule="evenodd" clip-rule="evenodd" d="M286.423 79.6481C286.736 81.3439 285.812 83.9237 283.964 89.0834L275.296 113.285L283.964 131.176C285.812 134.99 286.736 136.897 286.423 138.821C286.15 140.502 285.291 142.213 284.039 143.571C282.607 145.123 280.306 145.961 275.702 147.637L252.131 156.216C245.815 158.515 242.658 159.664 240.246 159.234C238.124 158.856 236.399 157.648 235.318 155.783C234.089 153.664 234.089 150.303 234.089 143.583V112.983C234.089 106.262 234.089 102.902 235.318 99.8876C236.399 97.2362 238.124 94.7725 240.246 92.8498C242.658 90.6639 245.815 89.5146 252.131 87.216L275.702 78.6368C280.306 76.9612 282.607 76.1234 284.039 76.6339C285.291 77.0801 286.15 78.1661 286.423 79.6481ZM18.7647 177.167C18.4516 179.091 19.3756 180.998 21.2236 184.812L29.8919 202.704L21.2236 226.905C19.3756 232.064 18.4516 234.644 18.7647 236.34C19.0383 237.822 19.8972 238.908 21.1486 239.354C22.5805 239.865 24.8823 239.027 29.4859 237.351L53.0571 228.772C59.3725 226.474 62.5301 225.324 64.9423 223.138C67.064 221.216 68.7891 218.752 69.8702 216.101C71.0992 213.086 71.0992 209.726 71.0992 203.005V172.405C71.0992 165.685 71.0992 162.324 69.8702 160.205C68.7891 158.34 67.064 157.132 64.9423 156.754C62.5301 156.324 59.3725 157.474 53.0571 159.772L29.4859 168.351C24.8823 170.027 22.5805 170.865 21.1486 172.418C19.8972 173.775 19.0383 175.486 18.7647 177.167Z"/>
</mask>
<path fill-rule="evenodd" clip-rule="evenodd" d="M286.423 79.6481C286.736 81.3439 285.812 83.9237 283.964 89.0834L275.296 113.285L283.964 131.176C285.812 134.99 286.736 136.897 286.423 138.821C286.15 140.502 285.291 142.213 284.039 143.571C282.607 145.123 280.306 145.961 275.702 147.637L252.131 156.216C245.815 158.515 242.658 159.664 240.246 159.234C238.124 158.856 236.399 157.648 235.318 155.783C234.089 153.664 234.089 150.303 234.089 143.583V112.983C234.089 106.262 234.089 102.902 235.318 99.8876C236.399 97.2362 238.124 94.7725 240.246 92.8498C242.658 90.6639 245.815 89.5146 252.131 87.216L275.702 78.6368C280.306 76.9612 282.607 76.1234 284.039 76.6339C285.291 77.0801 286.15 78.1661 286.423 79.6481ZM18.7647 177.167C18.4516 179.091 19.3756 180.998 21.2236 184.812L29.8919 202.704L21.2236 226.905C19.3756 232.064 18.4516 234.644 18.7647 236.34C19.0383 237.822 19.8972 238.908 21.1486 239.354C22.5805 239.865 24.8823 239.027 29.4859 237.351L53.0571 228.772C59.3725 226.474 62.5301 225.324 64.9423 223.138C67.064 221.216 68.7891 218.752 69.8702 216.101C71.0992 213.086 71.0992 209.726 71.0992 203.005V172.405C71.0992 165.685 71.0992 162.324 69.8702 160.205C68.7891 158.34 67.064 157.132 64.9423 156.754C62.5301 156.324 59.3725 157.474 53.0571 159.772L29.4859 168.351C24.8823 170.027 22.5805 170.865 21.1486 172.418C19.8972 173.775 19.0383 175.486 18.7647 177.167Z" fill="#38364C"/>
<path d="M283.964 89.0834L284.395 89.1274L284.395 89.1274L283.964 89.0834ZM286.423 79.6481L286.885 79.3894L286.885 79.3894L286.423 79.6481ZM275.296 113.285L274.866 113.24L274.783 113.471L274.866 113.642L275.296 113.285ZM283.964 131.176L283.534 131.533L283.534 131.533L283.964 131.176ZM286.423 138.821L286.885 138.743L286.885 138.743L286.423 138.821ZM284.039 143.571L284.303 143.889L284.303 143.889L284.039 143.571ZM240.246 159.234L240.459 158.711L240.459 158.711L240.246 159.234ZM235.318 155.783L235.736 155.404L235.736 155.404L235.318 155.783ZM235.318 99.8876L235.736 99.9622L235.736 99.9622L235.318 99.8876ZM240.246 92.8498L240.459 93.2176L240.459 93.2176L240.246 92.8498ZM284.039 76.6339L284.303 76.124L284.303 76.124L284.039 76.6339ZM21.2236 184.812L20.7933 185.17L21.2236 184.812ZM18.7647 177.167L19.2268 177.089L18.7647 177.167ZM29.8919 202.704L30.3222 202.748L30.4049 202.517L30.3222 202.346L29.8919 202.704ZM21.2236 226.905L21.654 226.949L21.2236 226.905ZM18.7647 236.34L19.2268 236.081L19.2268 236.081L18.7647 236.34ZM21.1486 239.354L20.8852 239.864L20.8852 239.864L21.1486 239.354ZM64.9423 223.138L64.729 222.771L64.729 222.771L64.9423 223.138ZM69.8702 216.101L69.4516 216.026L69.4516 216.026L69.8702 216.101ZM69.8702 160.205L69.4516 160.584L69.4516 160.584L69.8702 160.205ZM64.9423 156.754L64.729 157.277L64.729 157.277L64.9423 156.754ZM21.1486 172.418L21.412 172.736L21.412 172.736L21.1486 172.418ZM283.964 89.0834L284.395 89.1274C285.315 86.5578 286.019 84.5945 286.45 83.0629C286.881 81.5306 287.063 80.354 286.885 79.3894L286.423 79.6481L285.961 79.9068C286.096 80.638 285.973 81.5992 285.559 83.0707C285.144 84.5428 284.462 86.4493 283.534 89.0393L283.964 89.0834ZM275.296 113.285L275.726 113.329L284.395 89.1274L283.964 89.0834L283.534 89.0393L274.866 113.24L275.296 113.285ZM283.964 131.176L284.395 130.818L275.726 112.927L275.296 113.285L274.866 113.642L283.534 131.533L283.964 131.176ZM286.423 138.821L286.885 138.743C287.063 137.649 286.881 136.605 286.45 135.387C286.019 134.169 285.315 132.718 284.395 130.818L283.964 131.176L283.534 131.533C284.462 133.448 285.144 134.858 285.559 136.028C285.973 137.198 286.096 138.069 285.961 138.899L286.423 138.821ZM284.039 143.571L284.303 143.889C285.658 142.419 286.589 140.565 286.885 138.743L286.423 138.821L285.961 138.899C285.71 140.44 284.923 142.008 283.776 143.252L284.039 143.571ZM275.702 147.637V148.137C277.995 147.302 279.746 146.665 281.103 146.04C282.46 145.415 283.488 144.772 284.303 143.889L284.039 143.571L283.776 143.252C283.159 143.922 282.32 144.475 281.017 145.075C279.714 145.676 278.013 146.296 275.702 147.137V147.637ZM252.131 156.216V156.716L275.702 148.137V147.637V147.137L252.131 155.716V156.216ZM240.246 159.234L240.032 159.757C241.316 159.986 242.777 159.789 244.686 159.26C246.59 158.733 248.981 157.862 252.131 156.716V156.216V155.716C248.965 156.868 246.62 157.722 244.763 158.236C242.911 158.749 241.588 158.912 240.459 158.711L240.246 159.234ZM235.318 155.783L234.899 156.163C236.025 158.105 237.822 159.363 240.032 159.757L240.246 159.234L240.459 158.711C238.426 158.348 236.772 157.191 235.736 155.404L235.318 155.783ZM234.089 143.583L233.619 143.754C233.619 147.106 233.618 149.65 233.774 151.62C233.93 153.595 234.245 155.035 234.899 156.163L235.318 155.783L235.736 155.404C235.161 154.412 234.862 153.112 234.711 151.197C234.559 149.277 234.559 146.78 234.559 143.412L234.089 143.583ZM234.089 112.983L233.619 113.154V143.754L234.089 143.583L234.559 143.412V112.812L234.089 112.983ZM235.318 99.8876L234.899 99.813C234.245 101.417 233.93 103.086 233.774 105.175C233.618 107.258 233.619 109.802 233.619 113.154L234.089 112.983L234.559 112.812C234.559 109.443 234.559 106.947 234.711 104.916C234.862 102.89 235.161 101.373 235.736 99.9622L235.318 99.8876ZM240.246 92.8498L240.032 92.4819C237.822 94.4848 236.025 97.0511 234.899 99.813L235.318 99.8876L235.736 99.9622C236.772 97.4213 238.426 95.0603 240.459 93.2176L240.246 92.8498ZM252.131 87.216V86.716C248.981 87.8625 246.59 88.7322 244.686 89.5908C242.777 90.4517 241.316 91.319 240.032 92.4819L240.246 92.8498L240.459 93.2176C241.588 92.1947 242.911 91.3944 244.763 90.5596C246.62 89.7223 248.965 88.8681 252.131 87.716V87.216ZM275.702 78.6368V78.1368L252.131 86.716V87.216V87.716L275.702 79.1368V78.6368ZM284.039 76.6339L284.303 76.124C283.488 75.8336 282.46 75.9399 281.103 76.3021C279.746 76.6642 277.995 77.3023 275.702 78.1368V78.6368V79.1368C278.013 78.2957 279.714 77.6771 281.017 77.329C282.32 76.9811 283.159 76.9237 283.776 77.1438L284.039 76.6339ZM286.423 79.6481L286.885 79.3894C286.589 77.7838 285.658 76.6074 284.303 76.124L284.039 76.6339L283.776 77.1438C284.923 77.5528 285.71 78.5483 285.961 79.9068L286.423 79.6481ZM21.2236 184.812L21.654 184.455C20.7263 182.54 20.0439 181.131 19.6294 179.96C19.2151 178.79 19.0918 177.919 19.2268 177.089L18.7647 177.167L18.3026 177.245C18.1245 178.339 18.3066 179.383 18.7381 180.601C19.1693 181.819 19.8729 183.27 20.7933 185.17L21.2236 184.812ZM29.8919 202.704L30.3222 202.346L21.654 184.455L21.2236 184.812L20.7933 185.17L29.4616 203.061L29.8919 202.704ZM21.2236 226.905L21.654 226.949L30.3222 202.748L29.8919 202.704L29.4616 202.659L20.7933 226.861L21.2236 226.905ZM18.7647 236.34L19.2268 236.081C19.0918 235.35 19.2151 234.389 19.6294 232.918C20.0439 231.445 20.7263 229.539 21.654 226.949L21.2236 226.905L20.7933 226.861C19.8729 229.43 19.1693 231.394 18.7381 232.925C18.3066 234.458 18.1245 235.634 18.3026 236.599L18.7647 236.34ZM21.1486 239.354L21.412 238.844C20.2649 238.435 19.4776 237.44 19.2268 236.081L18.7647 236.34L18.3026 236.599C18.5991 238.204 19.5295 239.381 20.8852 239.864L21.1486 239.354ZM29.4859 237.351V236.851C27.175 237.692 25.474 238.311 24.1705 238.659C22.8675 239.007 22.0294 239.064 21.412 238.844L21.1486 239.354L20.8852 239.864C21.6997 240.155 22.7284 240.048 24.0852 239.686C25.4415 239.324 27.1932 238.686 29.4859 237.851V237.351ZM53.0571 228.772V228.272L29.4859 236.851V237.351V237.851L53.0571 229.272V228.772ZM64.9423 223.138L64.729 222.771C63.6002 223.793 62.2764 224.594 60.4251 225.429C58.5684 226.266 56.2226 227.12 53.0571 228.272V228.772V229.272C56.2071 228.126 58.5977 227.256 60.5017 226.397C62.4111 225.536 63.8722 224.669 65.1556 223.506L64.9423 223.138ZM69.8702 216.101L69.4516 216.026C68.4155 218.567 66.7623 220.928 64.729 222.771L64.9423 223.138L65.1556 223.506C67.3658 221.503 69.1627 218.937 70.2888 216.175L69.8702 216.101ZM71.0992 203.005L70.6294 203.176C70.6294 206.545 70.629 209.041 70.4773 211.073C70.3261 213.098 70.0267 214.615 69.4516 216.026L69.8702 216.101L70.2888 216.175C70.9427 214.571 71.2579 212.902 71.4139 210.813C71.5695 208.73 71.5691 206.186 71.5691 202.834L71.0992 203.005ZM71.0992 172.405L70.6294 172.576V203.176L71.0992 203.005L71.5691 202.834V172.234L71.0992 172.405ZM69.8702 160.205L69.4516 160.584C70.0267 161.576 70.3261 162.876 70.4773 164.791C70.629 166.712 70.6294 169.208 70.6294 172.576L71.0992 172.405L71.5691 172.234C71.5691 168.882 71.5695 166.338 71.4139 164.369C71.2579 162.393 70.9427 160.953 70.2888 159.825L69.8702 160.205ZM64.9423 156.754L64.729 157.277C66.7623 157.64 68.4155 158.797 69.4516 160.584L69.8702 160.205L70.2888 159.825C69.1627 157.883 67.3658 156.625 65.1556 156.231L64.9423 156.754ZM53.0571 159.772V160.272C56.2226 159.12 58.5684 158.267 60.4251 157.752C62.2764 157.239 63.6002 157.076 64.729 157.277L64.9423 156.754L65.1556 156.231C63.8722 156.002 62.4111 156.199 60.5017 156.728C58.5977 157.255 56.207 158.126 53.0571 159.272V159.772ZM29.4859 168.351V168.851L53.0571 160.272V159.772V159.272L29.4859 167.851V168.351ZM21.1486 172.418L21.412 172.736C22.0294 172.066 22.8675 171.513 24.1705 170.913C25.474 170.312 27.175 169.692 29.4859 168.851V168.351V167.851C27.1932 168.686 25.4415 169.323 24.0852 169.948C22.7284 170.573 21.6997 171.216 20.8852 172.099L21.1486 172.418ZM18.7647 177.167L19.2268 177.089C19.4776 175.548 20.2649 173.98 21.412 172.736L21.1486 172.418L20.8852 172.099C19.5295 173.57 18.5991 175.423 18.3026 177.245L18.7647 177.167Z" fill="url(#paint0_linear_2004_4773)" style="mix-blend-mode:darken" mask="url(#path-1-inside-1_2004_4773)"/>
</g>
<g style="mix-blend-mode:overlay" opacity="0.4">
<path fill-rule="evenodd" clip-rule="evenodd" d="M286.423 79.6481C286.736 81.3439 285.812 83.9237 283.964 89.0834L275.296 113.285L283.964 131.176C285.812 134.99 286.736 136.897 286.423 138.821C286.15 140.502 285.291 142.213 284.039 143.571C282.607 145.123 280.306 145.961 275.702 147.637L252.131 156.216C245.815 158.515 242.658 159.664 240.246 159.234C238.124 158.856 236.399 157.648 235.318 155.783C234.089 153.664 234.089 150.303 234.089 143.583V112.983C234.089 106.262 234.089 102.902 235.318 99.8876C236.399 97.2362 238.124 94.7725 240.246 92.8498C242.658 90.6639 245.815 89.5146 252.131 87.216L275.702 78.6368C280.306 76.9612 282.607 76.1234 284.039 76.6339C285.291 77.0801 286.15 78.1661 286.423 79.6481ZM18.7647 177.167C18.4516 179.091 19.3756 180.998 21.2236 184.812L29.8919 202.704L21.2236 226.905C19.3756 232.064 18.4516 234.644 18.7647 236.34C19.0383 237.822 19.8972 238.908 21.1486 239.354C22.5805 239.865 24.8823 239.027 29.4859 237.351L53.0571 228.772C59.3725 226.474 62.5301 225.324 64.9423 223.138C67.064 221.216 68.7891 218.752 69.8702 216.101C71.0992 213.086 71.0992 209.726 71.0992 203.005V172.405C71.0992 165.685 71.0992 162.324 69.8702 160.205C68.7891 158.34 67.064 157.132 64.9423 156.754C62.5301 156.324 59.3725 157.474 53.0571 159.772L29.4859 168.351C24.8823 170.027 22.5805 170.865 21.1486 172.418C19.8972 173.775 19.0383 175.486 18.7647 177.167Z" fill="url(#paint1_linear_2004_4773)"/>
</g>
<path fill-rule="evenodd" clip-rule="evenodd" d="M286.423 79.6481C286.736 81.3439 285.812 83.9237 283.964 89.0834L275.296 113.285L283.964 131.176C285.812 134.99 286.736 136.897 286.423 138.821C286.15 140.502 285.291 142.213 284.039 143.571C282.607 145.123 280.306 145.961 275.702 147.637L252.131 156.216C245.815 158.515 242.658 159.664 240.246 159.234C238.124 158.856 236.399 157.648 235.318 155.783C234.089 153.664 234.089 150.303 234.089 143.583V112.983C234.089 106.262 234.089 102.902 235.318 99.8876C236.399 97.2362 238.124 94.7725 240.246 92.8498C242.658 90.6639 245.815 89.5146 252.131 87.216L275.702 78.6368C280.306 76.9612 282.607 76.1234 284.039 76.6339C285.291 77.0801 286.15 78.1661 286.423 79.6481ZM18.7647 177.167C18.4516 179.091 19.3756 180.998 21.2236 184.812L29.8919 202.704L21.2236 226.905C19.3756 232.064 18.4516 234.644 18.7647 236.34C19.0383 237.822 19.8972 238.908 21.1486 239.354C22.5805 239.865 24.8823 239.027 29.4859 237.351L53.0571 228.772C59.3725 226.474 62.5301 225.324 64.9423 223.138C67.064 221.216 68.7891 218.752 69.8702 216.101C71.0992 213.086 71.0992 209.726 71.0992 203.005V172.405C71.0992 165.685 71.0992 162.324 69.8702 160.205C68.7891 158.34 67.064 157.132 64.9423 156.754C62.5301 156.324 59.3725 157.474 53.0571 159.772L29.4859 168.351C24.8823 170.027 22.5805 170.865 21.1486 172.418C19.8972 173.775 19.0383 175.486 18.7647 177.167Z" fill="black" fill-opacity="0.24" style="mix-blend-mode:overlay"/>
<path fill-rule="evenodd" clip-rule="evenodd" d="M286.423 79.6481C286.736 81.3439 285.812 83.9237 283.964 89.0834L275.296 113.285L283.964 131.176C285.812 134.99 286.736 136.897 286.423 138.821C286.15 140.502 285.291 142.213 284.039 143.571C282.607 145.123 280.306 145.961 275.702 147.637L252.131 156.216C245.815 158.515 242.658 159.664 240.246 159.234C238.124 158.856 236.399 157.648 235.318 155.783C234.089 153.664 234.089 150.303 234.089 143.583V112.983C234.089 106.262 234.089 102.902 235.318 99.8876C236.399 97.2362 238.124 94.7725 240.246 92.8498C242.658 90.6639 245.815 89.5146 252.131 87.216L275.702 78.6368C280.306 76.9612 282.607 76.1234 284.039 76.6339C285.291 77.0801 286.15 78.1661 286.423 79.6481ZM18.7647 177.167C18.4516 179.091 19.3756 180.998 21.2236 184.812L29.8919 202.704L21.2236 226.905C19.3756 232.064 18.4516 234.644 18.7647 236.34C19.0383 237.822 19.8972 238.908 21.1486 239.354C22.5805 239.865 24.8823 239.027 29.4859 237.351L53.0571 228.772C59.3725 226.474 62.5301 225.324 64.9423 223.138C67.064 221.216 68.7891 218.752 69.8702 216.101C71.0992 213.086 71.0992 209.726 71.0992 203.005V172.405C71.0992 165.685 71.0992 162.324 69.8702 160.205C68.7891 158.34 67.064 157.132 64.9423 156.754C62.5301 156.324 59.3725 157.474 53.0571 159.772L29.4859 168.351C24.8823 170.027 22.5805 170.865 21.1486 172.418C19.8972 173.775 19.0383 175.486 18.7647 177.167Z" fill="black" fill-opacity="0.12" style="mix-blend-mode:darken"/>
<g filter="url(#filter1_dddd_2004_4773)">
<circle cx="153" cy="140" r="96" fill="white"/>
</g>
<mask id="mask0_2004_4773" style="mask-type:alpha" maskUnits="userSpaceOnUse" x="57" y="44" width="192" height="192">
<circle cx="153" cy="140" r="96" fill="white"/>
</mask>
<g mask="url(#mask0_2004_4773)">
<mask id="mask1_2004_4773" style="mask-type:alpha" maskUnits="userSpaceOnUse" x="57" y="44" width="192" height="192">
<circle cx="153" cy="140" r="96" fill="white"/>
</mask>
<g mask="url(#mask1_2004_4773)">
<rect x="13" y="-6.10352e-05" width="280" height="280" fill="#A1ACC1"/>
<rect x="13" y="-6.10352e-05" width="280" height="280" fill="url(#paint2_linear_2004_4773)" fill-opacity="0.6" style="mix-blend-mode:overlay"/>
<rect x="13" y="-6.10352e-05" width="280" height="280" fill="url(#paint3_radial_2004_4773)" fill-opacity="0.6" style="mix-blend-mode:overlay"/>
<rect x="13" width="280" height="280" fill="black" fill-opacity="0.16" style="mix-blend-mode:overlay"/>
<rect x="13" width="280" height="280" fill="black" fill-opacity="0.12" style="mix-blend-mode:darken"/>
</g>
<g filter="url(#filter2_d_2004_4773)">
<mask id="mask2_2004_4773" style="mask-type:alpha" maskUnits="userSpaceOnUse" x="57" y="44" width="192" height="192">
<path fill-rule="evenodd" clip-rule="evenodd" d="M153 52C201.601 52 241 91.3989 241 140C241 188.601 201.601 228 153 228C104.399 228 65 188.601 65 140C65 91.3989 104.399 52 153 52ZM57 140C57 193.019 99.9807 236 153 236C206.019 236 249 193.019 249 140C249 86.9807 206.019 44 153 44C99.9807 44 57 86.9807 57 140ZM139.862 72.71C141.738 70.8945 142.677 69.9868 143.578 69.3302C149.193 65.2389 156.807 65.2389 162.422 69.3302C163.323 69.9868 164.262 70.8945 166.138 72.71C167.132 73.6716 167.629 74.1523 168.139 74.5699C171.247 77.1171 175.2 78.4014 179.211 78.1676C179.869 78.1293 180.554 78.0324 181.923 77.8388L181.923 77.8387C184.508 77.4731 185.801 77.2902 186.916 77.2887C193.864 77.2793 200.023 81.7546 202.161 88.3651C202.504 89.426 202.73 90.7118 203.181 93.2834L203.181 93.2838C203.42 94.6459 203.54 95.3269 203.706 95.9642C204.724 99.8519 207.167 103.214 210.55 105.383C211.104 105.739 211.715 106.063 212.936 106.711L212.936 106.711L212.937 106.711C215.243 107.935 216.396 108.547 217.299 109.201C222.926 113.277 225.278 120.518 223.123 127.123C222.777 128.183 222.203 129.356 221.057 131.701L221.057 131.702C220.449 132.944 220.145 133.565 219.906 134.179C218.444 137.922 218.444 142.078 219.906 145.821C220.145 146.435 220.449 147.056 221.057 148.299L221.057 148.299L221.057 148.3C222.203 150.645 222.777 151.818 223.123 152.877C225.278 159.482 222.926 166.723 217.299 170.799C216.396 171.453 215.243 172.065 212.937 173.289C211.715 173.937 211.104 174.261 210.55 174.617C207.167 176.786 204.724 180.148 203.706 184.036C203.54 184.673 203.42 185.354 203.181 186.716L203.181 186.717C202.73 189.288 202.504 190.574 202.161 191.635C200.023 198.245 193.864 202.721 186.916 202.711C185.801 202.71 184.508 202.527 181.923 202.161C180.554 201.968 179.869 201.871 179.211 201.832C175.2 201.599 171.247 202.883 168.139 205.43C167.629 205.848 167.132 206.328 166.138 207.29L166.138 207.29C164.262 209.105 163.323 210.013 162.422 210.67C156.807 214.761 149.193 214.761 143.578 210.67C142.677 210.013 141.738 209.105 139.862 207.29L139.861 207.29L139.861 207.289C138.867 206.328 138.371 205.848 137.861 205.43C134.753 202.883 130.8 201.599 126.789 201.832C126.131 201.871 125.446 201.968 124.077 202.161C121.492 202.527 120.199 202.71 119.084 202.711C112.136 202.721 105.977 198.245 103.839 191.635C103.495 190.574 103.27 189.288 102.819 186.716L102.819 186.716C102.58 185.354 102.46 184.673 102.294 184.036C101.276 180.148 98.8333 176.786 95.4503 174.617C94.8957 174.261 94.2849 173.937 93.0633 173.289C90.7568 172.065 89.6035 171.453 88.7005 170.799C83.0743 166.723 80.7215 159.482 82.8773 152.877C83.2233 151.817 83.7967 150.644 84.9434 148.299C85.5507 147.056 85.8544 146.435 86.0941 145.821C87.5561 142.078 87.5561 137.922 86.0941 134.179C85.8544 133.565 85.5507 132.944 84.9434 131.702L84.9433 131.701C83.7967 129.356 83.2233 128.183 82.8773 127.123C80.7215 120.518 83.0743 113.277 88.7005 109.201C89.6035 108.547 90.7567 107.935 93.0632 106.711L93.0633 106.711L93.0633 106.711L93.0635 106.711C94.285 106.063 94.8958 105.739 95.4503 105.383C98.8333 103.214 101.276 99.8519 102.294 95.9642C102.46 95.327 102.58 94.6459 102.819 93.2838L102.819 93.2838C103.27 90.7119 103.495 89.426 103.839 88.3651C105.977 81.7546 112.136 77.2793 119.084 77.2887C120.199 77.2902 121.492 77.4731 124.077 77.8388C125.446 78.0325 126.131 78.1293 126.789 78.1676C130.8 78.4014 134.753 77.1171 137.861 74.5699C138.371 74.1524 138.868 73.6716 139.861 72.7102L139.861 72.7102L139.862 72.71ZM207 140C207 169.823 182.823 194 153 194C123.177 194 99 169.823 99 140C99 110.177 123.177 86 153 86C182.823 86 207 110.177 207 140Z" fill="white"/>
</mask>
<g mask="url(#mask2_2004_4773)">
<rect x="13" y="-6.10352e-05" width="280" height="280" fill="#A1ACC1"/>
<rect x="13" y="-6.10352e-05" width="280" height="280" fill="url(#paint4_linear_2004_4773)" fill-opacity="0.6" style="mix-blend-mode:overlay"/>
<rect x="13" y="-6.10352e-05" width="280" height="280" fill="url(#paint5_radial_2004_4773)" fill-opacity="0.6" style="mix-blend-mode:overlay"/>
<g style="mix-blend-mode:soft-light">
<path fill-rule="evenodd" clip-rule="evenodd" d="M13 0H181L127.383 280H13V0Z" fill="url(#paint6_linear_2004_4773)" style="mix-blend-mode:lighten"/>
</g>
<g style="mix-blend-mode:soft-light">
<mask id="path-15-inside-2_2004_4773" fill="white">
<path fill-rule="evenodd" clip-rule="evenodd" d="M153 52C201.601 52 241 91.3989 241 140C241 188.601 201.601 228 153 228C104.399 228 65 188.601 65 140C65 91.3989 104.399 52 153 52ZM57 140C57 193.019 99.9807 236 153 236C206.019 236 249 193.019 249 140C249 86.9807 206.019 44 153 44C99.9807 44 57 86.9807 57 140ZM139.862 72.71C141.738 70.8945 142.677 69.9868 143.578 69.3302C149.193 65.2389 156.807 65.2389 162.422 69.3302C163.323 69.9868 164.262 70.8945 166.138 72.71C167.132 73.6716 167.629 74.1523 168.139 74.5699C171.247 77.1171 175.2 78.4014 179.211 78.1676C179.869 78.1293 180.554 78.0324 181.923 77.8388L181.923 77.8387C184.508 77.4731 185.801 77.2902 186.916 77.2887C193.864 77.2793 200.023 81.7546 202.161 88.3651C202.504 89.426 202.73 90.7118 203.181 93.2834L203.181 93.2838C203.42 94.6459 203.54 95.3269 203.706 95.9642C204.724 99.8519 207.167 103.214 210.55 105.383C211.104 105.739 211.715 106.063 212.936 106.711L212.936 106.711L212.937 106.711C215.243 107.935 216.396 108.547 217.299 109.201C222.926 113.277 225.278 120.518 223.123 127.123C222.777 128.183 222.203 129.356 221.057 131.701L221.057 131.702C220.449 132.944 220.145 133.565 219.906 134.179C218.444 137.922 218.444 142.078 219.906 145.821C220.145 146.435 220.449 147.056 221.057 148.299L221.057 148.299L221.057 148.3C222.203 150.645 222.777 151.818 223.123 152.877C225.278 159.482 222.926 166.723 217.299 170.799C216.396 171.453 215.243 172.065 212.937 173.289C211.715 173.937 211.104 174.261 210.55 174.617C207.167 176.786 204.724 180.148 203.706 184.036C203.54 184.673 203.42 185.354 203.181 186.716L203.181 186.717C202.73 189.288 202.504 190.574 202.161 191.635C200.023 198.245 193.864 202.721 186.916 202.711C185.801 202.71 184.508 202.527 181.923 202.161C180.554 201.968 179.869 201.871 179.211 201.832C175.2 201.599 171.247 202.883 168.139 205.43C167.629 205.848 167.132 206.328 166.138 207.29L166.138 207.29C164.262 209.105 163.323 210.013 162.422 210.67C156.807 214.761 149.193 214.761 143.578 210.67C142.677 210.013 141.738 209.105 139.862 207.29L139.861 207.29L139.861 207.289C138.867 206.328 138.371 205.848 137.861 205.43C134.753 202.883 130.8 201.599 126.789 201.832C126.131 201.871 125.446 201.968 124.077 202.161C121.492 202.527 120.199 202.71 119.084 202.711C112.136 202.721 105.977 198.245 103.839 191.635C103.495 190.574 103.27 189.288 102.819 186.716L102.819 186.716C102.58 185.354 102.46 184.673 102.294 184.036C101.276 180.148 98.8333 176.786 95.4503 174.617C94.8957 174.261 94.2849 173.937 93.0633 173.289C90.7568 172.065 89.6035 171.453 88.7005 170.799C83.0743 166.723 80.7215 159.482 82.8773 152.877C83.2233 151.817 83.7967 150.644 84.9434 148.299C85.5507 147.056 85.8544 146.435 86.0941 145.821C87.5561 142.078 87.5561 137.922 86.0941 134.179C85.8544 133.565 85.5507 132.944 84.9434 131.702L84.9433 131.701C83.7967 129.356 83.2233 128.183 82.8773 127.123C80.7215 120.518 83.0743 113.277 88.7005 109.201C89.6035 108.547 90.7567 107.935 93.0632 106.711L93.0633 106.711L93.0633 106.711L93.0635 106.711C94.285 106.063 94.8958 105.739 95.4503 105.383C98.8333 103.214 101.276 99.8519 102.294 95.9642C102.46 95.327 102.58 94.6459 102.819 93.2838L102.819 93.2838C103.27 90.7119 103.495 89.426 103.839 88.3651C105.977 81.7546 112.136 77.2793 119.084 77.2887C120.199 77.2902 121.492 77.4731 124.077 77.8388C125.446 78.0325 126.131 78.1293 126.789 78.1676C130.8 78.4014 134.753 77.1171 137.861 74.5699C138.371 74.1524 138.868 73.6716 139.861 72.7102L139.861 72.7102L139.862 72.71ZM207 140C207 169.823 182.823 194 153 194C123.177 194 99 169.823 99 140C99 110.177 123.177 86 153 86C182.823 86 207 110.177 207 140Z"/>
</mask>
<path d="M143.578 69.3302L143.283 68.926L143.283 68.926L143.578 69.3302ZM139.862 72.71L139.514 72.3506L139.51 72.3544L139.862 72.71ZM162.422 69.3302L162.716 68.926L162.716 68.926L162.422 69.3302ZM166.138 72.71L166.486 72.3507L166.486 72.3507L166.138 72.71ZM168.139 74.5699L167.822 74.9566L167.822 74.9566L168.139 74.5699ZM179.211 78.1676L179.182 77.6685L179.182 77.6685L179.211 78.1676ZM181.923 77.8388L181.993 78.3338C182.002 78.3325 182.012 78.3309 182.021 78.3291L181.923 77.8388ZM181.923 77.8387L181.853 77.3437C181.844 77.345 181.834 77.3466 181.825 77.3485L181.923 77.8387ZM186.916 77.2887L186.915 76.7887L186.915 76.7887L186.916 77.2887ZM202.161 88.3651L201.686 88.5189L201.686 88.5189L202.161 88.3651ZM203.181 93.2834L202.688 93.3698L202.691 93.3805L203.181 93.2834ZM203.181 93.2838L203.674 93.1974L203.672 93.1866L203.181 93.2838ZM203.706 95.9642L204.19 95.8376L204.19 95.8376L203.706 95.9642ZM210.55 105.383L210.28 105.804L210.28 105.804L210.55 105.383ZM212.936 106.711L212.702 107.153L212.713 107.158L212.936 106.711ZM212.936 106.711L213.177 106.273C213.172 106.27 213.166 106.267 213.16 106.264L212.936 106.711ZM212.937 106.711L212.696 107.149L212.702 107.153L212.937 106.711ZM217.299 109.201L217.593 108.796L217.593 108.796L217.299 109.201ZM223.123 127.123L222.647 126.968L222.647 126.968L223.123 127.123ZM221.057 131.701L221.504 131.925L221.506 131.921L221.057 131.701ZM221.057 131.702L220.609 131.478L220.607 131.482L221.057 131.702ZM219.906 134.179L219.44 133.997L219.44 133.997L219.906 134.179ZM219.906 145.821L219.44 146.003L219.44 146.003L219.906 145.821ZM221.057 148.299L220.607 148.518L220.613 148.529L221.057 148.299ZM221.057 148.299L221.506 148.079L221.501 148.069L221.057 148.299ZM221.057 148.3L221.507 148.081L221.506 148.08L221.057 148.3ZM223.123 152.877L222.647 153.032L222.647 153.032L223.123 152.877ZM217.299 170.799L217.593 171.204L217.593 171.204L217.299 170.799ZM212.937 173.289L213.171 173.731L213.171 173.731L212.937 173.289ZM210.55 174.617L210.819 175.038L210.819 175.038L210.55 174.617ZM203.706 184.036L203.223 183.909L203.223 183.909L203.706 184.036ZM203.181 186.716L203.669 186.827C203.671 186.819 203.672 186.811 203.674 186.803L203.181 186.716ZM203.181 186.717L202.693 186.606C202.692 186.614 202.69 186.622 202.689 186.63L203.181 186.717ZM202.161 191.635L201.686 191.481L201.686 191.481L202.161 191.635ZM186.916 202.711L186.917 202.211L186.917 202.211L186.916 202.711ZM181.923 202.161L181.993 201.666L181.993 201.666L181.923 202.161ZM179.211 201.832L179.24 201.333L179.24 201.333L179.211 201.832ZM168.139 205.43L167.822 205.043L167.822 205.043L168.139 205.43ZM166.138 207.29L166.464 207.669C166.471 207.663 166.479 207.656 166.486 207.649L166.138 207.29ZM166.138 207.29L165.813 206.91C165.805 206.917 165.798 206.924 165.791 206.931L166.138 207.29ZM162.422 210.67L162.716 211.074L162.716 211.074L162.422 210.67ZM143.578 210.67L143.283 211.074L143.283 211.074L143.578 210.67ZM139.862 207.29L139.508 207.644L139.514 207.649L139.862 207.29ZM139.861 207.29L140.215 206.936L140.21 206.931L139.861 207.29ZM139.861 207.289L140.209 206.93L140.208 206.93L139.861 207.289ZM137.861 205.43L137.544 205.817L137.544 205.817L137.861 205.43ZM126.789 201.832L126.759 201.333L126.759 201.333L126.789 201.832ZM124.077 202.161L124.007 201.666L124.007 201.666L124.077 202.161ZM119.084 202.711L119.083 202.211L119.083 202.211L119.084 202.711ZM103.839 191.635L103.363 191.789L103.363 191.789L103.839 191.635ZM102.819 186.716L102.326 186.799L102.326 186.803L102.819 186.716ZM102.819 186.716L103.312 186.634L103.311 186.63L102.819 186.716ZM102.294 184.036L101.81 184.162L101.81 184.162L102.294 184.036ZM95.4503 174.617L95.1804 175.038L95.1804 175.038L95.4503 174.617ZM93.0633 173.289L92.829 173.731L92.829 173.731L93.0633 173.289ZM88.7005 170.799L88.4072 171.204L88.4072 171.204L88.7005 170.799ZM82.8773 152.877L83.3526 153.032L83.3526 153.032L82.8773 152.877ZM84.9434 148.299L85.3926 148.518L85.3926 148.518L84.9434 148.299ZM86.0941 145.821L85.6283 145.639L85.6283 145.639L86.0941 145.821ZM86.0941 134.179L85.6283 134.361L85.6283 134.361L86.0941 134.179ZM84.9434 131.702L84.4898 131.912L84.4942 131.921L84.9434 131.702ZM84.9433 131.701L85.3969 131.491L85.3925 131.482L84.9433 131.701ZM82.8773 127.123L83.3526 126.968L83.3526 126.968L82.8773 127.123ZM88.7005 109.201L88.4072 108.796L88.4072 108.796L88.7005 109.201ZM93.0632 106.711L93.2975 107.153C93.3021 107.15 93.3067 107.148 93.3112 107.145L93.0632 106.711ZM93.0633 106.711L92.8293 106.269C92.8246 106.272 92.8198 106.274 92.8152 106.277L93.0633 106.711ZM93.0633 106.711L93.2973 107.153L93.3043 107.149L93.0633 106.711ZM93.0635 106.711L92.8292 106.269L92.8226 106.273L93.0635 106.711ZM95.4503 105.383L95.1804 104.962L95.1804 104.962L95.4503 105.383ZM102.294 95.9642L102.777 96.0908L102.777 96.0908L102.294 95.9642ZM102.819 93.2838L102.327 93.1944L102.326 93.1975L102.819 93.2838ZM102.819 93.2838L103.311 93.3732L103.311 93.3701L102.819 93.2838ZM103.839 88.3651L103.363 88.2112L103.363 88.2112L103.839 88.3651ZM119.084 77.2887L119.085 76.7887L119.085 76.7887L119.084 77.2887ZM124.077 77.8388L124.007 78.3338L124.007 78.3338L124.077 77.8388ZM126.789 78.1676L126.818 77.6685L126.818 77.6685L126.789 78.1676ZM137.861 74.5699L138.178 74.9566L138.178 74.9566L137.861 74.5699ZM139.861 72.7102L139.523 72.3415L139.514 72.3509L139.861 72.7102ZM139.861 72.7102L140.199 73.0788C140.204 73.0745 140.208 73.0702 140.213 73.0658L139.861 72.7102ZM241 140H241.5C241.5 91.1228 201.877 51.5 153 51.5V52V52.5C201.325 52.5 240.5 91.6751 240.5 140H241ZM153 228V228.5C201.877 228.5 241.5 188.877 241.5 140H241H240.5C240.5 188.325 201.325 227.5 153 227.5V228ZM65 140H64.5C64.5 188.877 104.123 228.5 153 228.5V228V227.5C104.675 227.5 65.5 188.325 65.5 140H65ZM153 52V51.5C104.123 51.5 64.5 91.1228 64.5 140H65H65.5C65.5 91.6751 104.675 52.5 153 52.5V52ZM153 236V235.5C100.257 235.5 57.5 192.743 57.5 140H57H56.5C56.5 193.295 99.7045 236.5 153 236.5V236ZM249 140H248.5C248.5 192.743 205.743 235.5 153 235.5V236V236.5C206.295 236.5 249.5 193.295 249.5 140H249ZM153 44V44.5C205.743 44.5 248.5 87.2568 248.5 140H249H249.5C249.5 86.7045 206.295 43.5 153 43.5V44ZM57 140H57.5C57.5 87.2568 100.257 44.5 153 44.5V44V43.5C99.7045 43.5 56.5 86.7045 56.5 140H57ZM143.578 69.3302L143.283 68.926C142.347 69.6083 141.379 70.5468 139.514 72.3507L139.862 72.71L140.209 73.0694C142.098 71.2423 143.006 70.3652 143.872 69.7343L143.578 69.3302ZM162.422 69.3302L162.716 68.926C156.926 64.7069 149.074 64.7069 143.283 68.926L143.578 69.3302L143.872 69.7343C149.312 65.7708 156.688 65.7708 162.128 69.7343L162.422 69.3302ZM166.138 72.71L166.486 72.3507C164.621 70.5468 163.653 69.6083 162.716 68.926L162.422 69.3302L162.128 69.7343C162.994 70.3652 163.902 71.2423 165.791 73.0694L166.138 72.71ZM168.139 74.5699L168.456 74.1831C167.966 73.7817 167.486 73.318 166.486 72.3507L166.138 72.71L165.791 73.0694C166.779 74.0251 167.293 74.5229 167.822 74.9566L168.139 74.5699ZM179.211 78.1676L179.182 77.6685C175.296 77.895 171.467 76.6507 168.456 74.1831L168.139 74.5699L167.822 74.9566C171.027 77.5834 175.103 78.9079 179.24 78.6668L179.211 78.1676ZM181.923 77.8388L181.853 77.3437C180.475 77.5385 179.815 77.6316 179.182 77.6685L179.211 78.1676L179.24 78.6668C179.923 78.627 180.632 78.5263 181.993 78.3338L181.923 77.8388ZM181.923 77.8387L181.825 77.3485L181.825 77.3485L181.923 77.8388L182.021 78.3291L182.021 78.329L181.923 77.8387ZM186.916 77.2887L186.915 76.7887C185.757 76.7903 184.422 76.9803 181.853 77.3437L181.923 77.8387L181.993 78.3338C184.595 77.9658 185.845 77.7902 186.917 77.7887L186.916 77.2887ZM202.161 88.3651L202.637 88.2112C200.432 81.3942 194.08 76.779 186.915 76.7887L186.916 77.2887L186.917 77.7887C193.647 77.7796 199.614 82.115 201.686 88.5189L202.161 88.3651ZM203.181 93.2834L203.674 93.197C203.225 90.6419 202.994 89.3136 202.637 88.2112L202.161 88.3651L201.686 88.5189C202.015 89.5383 202.235 90.7817 202.689 93.3698L203.181 93.2834ZM203.181 93.2838L203.672 93.1866L203.672 93.1863L203.181 93.2834L202.691 93.3805L202.691 93.3809L203.181 93.2838ZM203.706 95.9642L204.19 95.8376C204.03 95.225 203.914 94.5677 203.674 93.1974L203.181 93.2838L202.689 93.3701C202.926 94.724 203.049 95.4289 203.223 96.0908L203.706 95.9642ZM210.55 105.383L210.819 104.962C207.542 102.861 205.176 99.6038 204.19 95.8376L203.706 95.9642L203.223 96.0908C204.272 100.1 206.791 103.567 210.28 105.804L210.55 105.383ZM212.936 106.711L213.17 106.269C211.942 105.617 211.353 105.304 210.819 104.962L210.55 105.383L210.28 105.804C210.856 106.173 211.488 106.508 212.702 107.152L212.936 106.711ZM212.936 106.711L213.16 106.264L213.16 106.264L212.936 106.711L212.713 107.158L212.713 107.158L212.936 106.711ZM212.937 106.711L213.178 106.273L213.177 106.273L212.936 106.711L212.695 107.149L212.696 107.149L212.937 106.711ZM217.299 109.201L217.593 108.796C216.654 108.116 215.463 107.485 213.171 106.269L212.937 106.711L212.702 107.153C215.024 108.384 216.138 108.977 217.006 109.606L217.299 109.201ZM223.123 127.123L223.598 127.278C225.821 120.467 223.395 112.999 217.593 108.796L217.299 109.201L217.006 109.606C222.456 113.555 224.736 120.569 222.647 126.968L223.123 127.123ZM221.057 131.701L221.506 131.921C222.645 129.59 223.238 128.379 223.598 127.278L223.123 127.123L222.647 126.968C222.315 127.986 221.761 129.121 220.608 131.481L221.057 131.701ZM221.057 131.702L221.504 131.925L221.504 131.925L221.057 131.701L220.61 131.477L220.609 131.478L221.057 131.702ZM219.906 134.179L220.372 134.361C220.602 133.771 220.895 133.171 221.506 131.921L221.057 131.702L220.607 131.482C220.004 132.717 219.689 133.36 219.44 133.997L219.906 134.179ZM219.906 145.821L220.372 145.639C218.955 142.013 218.955 137.987 220.372 134.361L219.906 134.179L219.44 133.997C217.932 137.857 217.932 142.143 219.44 146.003L219.906 145.821ZM221.057 148.299L221.506 148.079C220.895 146.829 220.602 146.229 220.372 145.639L219.906 145.821L219.44 146.003C219.689 146.64 220.004 147.283 220.607 148.518L221.057 148.299ZM221.057 148.299L221.501 148.069L221.5 148.068L221.057 148.299L220.613 148.529L220.613 148.529L221.057 148.299ZM221.057 148.3L221.506 148.08L221.506 148.079L221.057 148.299L220.608 148.519L220.609 148.521L221.057 148.3ZM223.123 152.877L223.598 152.722C223.238 151.621 222.645 150.41 221.507 148.081L221.057 148.3L220.608 148.52C221.762 150.88 222.315 152.014 222.647 153.032L223.123 152.877ZM217.299 170.799L217.593 171.204C223.395 167.001 225.821 159.533 223.598 152.722L223.123 152.877L222.647 153.032C224.736 159.431 222.456 166.446 217.006 170.394L217.299 170.799ZM212.937 173.289L213.171 173.731C215.463 172.515 216.654 171.884 217.593 171.204L217.299 170.799L217.006 170.394C216.138 171.023 215.024 171.616 212.702 172.847L212.937 173.289ZM210.55 174.617L210.819 175.038C211.353 174.696 211.942 174.383 213.171 173.731L212.937 173.289L212.702 172.847C211.488 173.492 210.856 173.827 210.28 174.196L210.55 174.617ZM203.706 184.036L204.19 184.162C205.176 180.396 207.542 177.139 210.819 175.038L210.55 174.617L210.28 174.196C206.791 176.433 204.272 179.9 203.223 183.909L203.706 184.036ZM203.181 186.716L203.674 186.803C203.914 185.432 204.03 184.775 204.19 184.162L203.706 184.036L203.223 183.909C203.049 184.571 202.926 185.276 202.689 186.63L203.181 186.716ZM203.181 186.717L203.669 186.827L203.669 186.827L203.181 186.716L202.694 186.605L202.693 186.606L203.181 186.717ZM202.161 191.635L202.637 191.789C202.994 190.686 203.225 189.358 203.674 186.803L203.181 186.717L202.689 186.63C202.235 189.218 202.015 190.462 201.686 191.481L202.161 191.635ZM186.916 202.711L186.915 203.211C194.08 203.221 200.432 198.606 202.637 191.789L202.161 191.635L201.686 191.481C199.614 197.885 193.647 202.22 186.917 202.211L186.916 202.711ZM181.923 202.161L181.853 202.656C184.422 203.02 185.757 203.21 186.915 203.211L186.916 202.711L186.917 202.211C185.845 202.21 184.595 202.034 181.993 201.666L181.923 202.161ZM179.211 201.832L179.182 202.332C179.815 202.368 180.475 202.461 181.853 202.656L181.923 202.161L181.993 201.666C180.632 201.474 179.923 201.373 179.24 201.333L179.211 201.832ZM168.139 205.43L168.456 205.817C171.467 203.349 175.296 202.105 179.182 202.332L179.211 201.832L179.24 201.333C175.103 201.092 171.027 202.417 167.822 205.043L168.139 205.43ZM166.138 207.29L166.486 207.649C167.486 206.682 167.966 206.218 168.456 205.817L168.139 205.43L167.822 205.043C167.293 205.477 166.779 205.975 165.791 206.931L166.138 207.29ZM166.138 207.29L166.464 207.67L166.464 207.669L166.138 207.29L165.813 206.91L165.813 206.91L166.138 207.29ZM162.422 210.67L162.716 211.074C163.653 210.392 164.621 209.453 166.486 207.649L166.138 207.29L165.791 206.931C163.902 208.758 162.994 209.635 162.128 210.266L162.422 210.67ZM143.578 210.67L143.283 211.074C149.074 215.293 156.926 215.293 162.716 211.074L162.422 210.67L162.128 210.266C156.688 214.229 149.312 214.229 143.872 210.266L143.578 210.67ZM139.862 207.29L139.514 207.649C141.379 209.453 142.347 210.392 143.283 211.074L143.578 210.67L143.872 210.266C143.006 209.635 142.098 208.758 140.209 206.931L139.862 207.29ZM139.861 207.29L139.508 207.643L139.508 207.644L139.862 207.29L140.215 206.936L140.215 206.936L139.861 207.29ZM139.861 207.289L139.512 207.648L139.513 207.648L139.861 207.29L140.21 206.931L140.209 206.93L139.861 207.289ZM137.861 205.43L137.544 205.817C138.034 206.218 138.514 206.682 139.513 207.648L139.861 207.289L140.208 206.93C139.221 205.975 138.707 205.477 138.178 205.043L137.861 205.43ZM126.789 201.832L126.818 202.332C130.704 202.105 134.533 203.349 137.544 205.817L137.861 205.43L138.178 205.043C134.973 202.417 130.897 201.092 126.759 201.333L126.789 201.832ZM124.077 202.161L124.147 202.656C125.525 202.461 126.185 202.368 126.818 202.332L126.789 201.832L126.759 201.333C126.076 201.373 125.368 201.474 124.007 201.666L124.077 202.161ZM119.084 202.711L119.085 203.211C120.243 203.21 121.578 203.02 124.147 202.656L124.077 202.161L124.007 201.666C121.405 202.034 120.155 202.21 119.083 202.211L119.084 202.711ZM103.839 191.635L103.363 191.789C105.568 198.606 111.92 203.221 119.085 203.211L119.084 202.711L119.083 202.211C112.353 202.22 106.386 197.885 104.314 191.481L103.839 191.635ZM102.819 186.716L102.326 186.803C102.775 189.358 103.006 190.686 103.363 191.789L103.839 191.635L104.314 191.481C103.985 190.462 103.765 189.218 103.311 186.63L102.819 186.716ZM102.819 186.716L102.326 186.798L102.326 186.799L102.819 186.716L103.312 186.634L103.312 186.634L102.819 186.716ZM102.294 184.036L101.81 184.162C101.97 184.775 102.086 185.432 102.326 186.803L102.819 186.716L103.311 186.63C103.074 185.276 102.951 184.571 102.777 183.909L102.294 184.036ZM95.4503 174.617L95.1804 175.038C98.4577 177.139 100.824 180.396 101.81 184.162L102.294 184.036L102.777 183.909C101.728 179.9 99.2089 176.433 95.7202 174.196L95.4503 174.617ZM93.0633 173.289L92.829 173.731C94.058 174.383 94.6473 174.696 95.1804 175.038L95.4503 174.617L95.7202 174.196C95.1442 173.827 94.5119 173.492 93.2977 172.847L93.0633 173.289ZM88.7005 170.799L88.4072 171.204C89.3454 171.884 90.5372 172.515 92.829 173.731L93.0633 173.289L93.2977 172.847C90.9763 171.616 89.8615 171.023 88.9938 170.394L88.7005 170.799ZM82.8773 152.877L82.402 152.722C80.1788 159.533 82.6051 167.001 88.4072 171.204L88.7005 170.799L88.9938 170.394C83.5434 166.446 81.2642 159.431 83.3526 153.032L82.8773 152.877ZM84.9434 148.299L84.4942 148.079C83.3548 150.41 82.7615 151.621 82.402 152.722L82.8773 152.877L83.3526 153.032C83.6851 152.014 84.2386 150.879 85.3926 148.518L84.9434 148.299ZM86.0941 145.821L85.6283 145.639C85.3979 146.229 85.1052 146.829 84.4942 148.079L84.9434 148.299L85.3926 148.518C85.9963 147.283 86.3109 146.64 86.5598 146.003L86.0941 145.821ZM86.0941 134.179L85.6283 134.361C87.0447 137.987 87.0447 142.013 85.6283 145.639L86.0941 145.821L86.5598 146.003C88.0676 142.143 88.0676 137.857 86.5598 133.997L86.0941 134.179ZM84.9434 131.702L84.4942 131.921C85.1052 133.171 85.3979 133.771 85.6283 134.361L86.0941 134.179L86.5598 133.997C86.3109 133.36 85.9963 132.717 85.3926 131.482L84.9434 131.702ZM84.9433 131.701L84.4898 131.912L84.4899 131.912L84.9434 131.702L85.3969 131.491L85.3968 131.491L84.9433 131.701ZM82.8773 127.123L82.402 127.278C82.7615 128.379 83.3548 129.59 84.4941 131.921L84.9433 131.701L85.3925 131.482C84.2385 129.121 83.6851 127.986 83.3526 126.968L82.8773 127.123ZM88.7005 109.201L88.4072 108.796C82.6051 112.999 80.1788 120.467 82.402 127.278L82.8773 127.123L83.3526 126.968C81.2642 120.569 83.5434 113.555 88.9938 109.606L88.7005 109.201ZM93.0632 106.711L92.8288 106.269C90.5371 107.485 89.3454 108.116 88.4072 108.796L88.7005 109.201L88.9938 109.606C89.8615 108.977 90.9763 108.384 93.2975 107.153L93.0632 106.711ZM93.0633 106.711L92.8152 106.277L92.8151 106.277L93.0632 106.711L93.3112 107.145L93.3113 107.145L93.0633 106.711ZM93.0633 106.711L92.8294 106.269L92.8293 106.269L93.0633 106.711L93.2972 107.153L93.2973 107.153L93.0633 106.711ZM93.0635 106.711L92.8226 106.273L92.8224 106.273L93.0633 106.711L93.3043 107.149L93.3045 107.149L93.0635 106.711ZM95.4503 105.383L95.1804 104.962C94.6473 105.304 94.0581 105.617 92.8292 106.269L93.0635 106.711L93.2979 107.153C94.512 106.508 95.1442 106.173 95.7202 105.804L95.4503 105.383ZM102.294 95.9642L101.81 95.8376C100.824 99.6038 98.4577 102.861 95.1804 104.962L95.4503 105.383L95.7202 105.804C99.2089 103.567 101.728 100.1 102.777 96.0908L102.294 95.9642ZM102.819 93.2838L102.326 93.1975C102.086 94.5678 101.97 95.225 101.81 95.8376L102.294 95.9642L102.777 96.0908C102.951 95.4289 103.074 94.724 103.311 93.3702L102.819 93.2838ZM102.819 93.2838L102.327 93.1943L102.327 93.1944L102.819 93.2838L103.311 93.3733L103.311 93.3732L102.819 93.2838ZM103.839 88.3651L103.363 88.2112C103.006 89.3136 102.775 90.642 102.326 93.1974L102.819 93.2838L103.311 93.3701C103.765 90.7818 103.985 89.5384 104.314 88.5189L103.839 88.3651ZM119.084 77.2887L119.085 76.7887C111.92 76.779 105.568 81.3942 103.363 88.2112L103.839 88.3651L104.314 88.5189C106.386 82.115 112.353 77.7796 119.083 77.7887L119.084 77.2887ZM124.077 77.8388L124.147 77.3437C121.578 76.9804 120.243 76.7903 119.085 76.7887L119.084 77.2887L119.083 77.7887C120.155 77.7902 121.405 77.9658 124.007 78.3338L124.077 77.8388ZM126.789 78.1676L126.818 77.6685C126.185 77.6316 125.525 77.5386 124.147 77.3437L124.077 77.8388L124.007 78.3338C125.368 78.5264 126.076 78.627 126.759 78.6668L126.789 78.1676ZM137.861 74.5699L137.544 74.1831C134.533 76.6507 130.704 77.895 126.818 77.6685L126.789 78.1676L126.759 78.6668C130.897 78.9079 134.973 77.5834 138.178 74.9566L137.861 74.5699ZM139.861 72.7102L139.514 72.3509C138.514 73.3181 138.034 73.7817 137.544 74.1831L137.861 74.5699L138.178 74.9566C138.707 74.523 139.221 74.0252 140.209 73.0696L139.861 72.7102ZM139.861 72.7102L139.524 72.3416L139.524 72.3417L139.861 72.7102L140.199 73.0788L140.199 73.0788L139.861 72.7102ZM139.862 72.71L139.51 72.3544L139.51 72.3545L139.861 72.7102L140.213 73.0658L140.213 73.0657L139.862 72.71ZM153 194V194.5C183.1 194.5 207.5 170.1 207.5 140H207H206.5C206.5 169.547 182.547 193.5 153 193.5V194ZM99 140H98.5C98.5 170.1 122.901 194.5 153 194.5V194V193.5C123.453 193.5 99.5 169.547 99.5 140H99ZM153 86V85.5C122.901 85.5 98.5 109.9 98.5 140H99H99.5C99.5 110.453 123.453 86.5 153 86.5V86ZM207 140H207.5C207.5 109.9 183.1 85.5 153 85.5V86V86.5C182.547 86.5 206.5 110.453 206.5 140H207Z" fill="url(#paint7_linear_2004_4773)" mask="url(#path-15-inside-2_2004_4773)"/>
</g>
</g>
</g>
</g>
<g filter="url(#filter3_dd_2004_4773)">
<rect width="244" height="69" rx="12" transform="matrix(0.939693 -0.34202 0 1 36.0547 148.141)" fill="#38364C"/>
<rect x="0.234923" y="0.164495" width="243.5" height="68.5" rx="11.75" transform="matrix(0.939693 -0.34202 0 1 36.0689 148.221)" stroke="url(#paint8_linear_2004_4773)" stroke-width="0.5" stroke-linecap="round" style="mix-blend-mode:darken"/>
</g>
<rect width="244" height="69" rx="12" transform="matrix(0.939693 -0.34202 0 1 36.0547 148.141)" fill="url(#paint9_linear_2004_4773)" fill-opacity="0.3" style="mix-blend-mode:overlay"/>
<rect width="244" height="69" rx="12" transform="matrix(0.939693 -0.34202 0 1 36.0547 148.141)" fill="url(#paint10_radial_2004_4773)" fill-opacity="0.6" style="mix-blend-mode:overlay"/>
<circle cx="51.6531" cy="176.997" r="4.75" fill="white"/>
<circle cx="51.6531" cy="176.997" r="4.75" stroke="url(#paint11_linear_2004_4773)" stroke-width="0.5" stroke-linecap="round" style="mix-blend-mode:darken"/>
<circle cx="249.603" cy="103.571" r="4.75" fill="white"/>
<circle cx="249.603" cy="103.571" r="4.75" stroke="url(#paint12_linear_2004_4773)" stroke-width="0.5" stroke-linecap="round" style="mix-blend-mode:darken"/>
<mask id="path-22-outside-3_2004_4773" maskUnits="userSpaceOnUse" x="99.9538" y="108.761" width="103.366" height="62.6222" fill="black">
<rect fill="white" x="99.9538" y="108.761" width="103.366" height="62.6222"/>
<path d="M105.729 155.941L107.759 155.202C108.909 154.784 109.811 154.167 110.465 153.353C111.142 152.531 111.48 151.58 111.48 150.5C111.48 149.42 111.165 148.719 110.533 148.397C109.902 148.075 108.988 148.131 107.793 148.566C107.387 148.714 107.015 148.861 106.677 149.008C106.361 149.147 106.045 149.298 105.729 149.461V155.941ZM108.097 159.399L100.621 162.12V149.232C100.621 148.776 100.745 148.371 100.993 148.017C101.241 147.663 101.568 147.34 101.974 147.048C102.719 146.489 103.609 145.961 104.647 145.463C105.684 144.966 106.62 144.565 107.455 144.261C110.499 143.153 112.8 143.012 114.356 143.837C115.934 144.631 116.724 146.216 116.724 148.592C116.724 150.128 116.374 151.599 115.675 153.005C114.999 154.404 114.018 155.661 112.732 156.776C111.447 157.868 109.902 158.743 108.097 159.399ZM100.621 159.708L105.763 157.837V167.233C105.56 167.379 105.233 167.558 104.782 167.77C104.331 168.006 103.869 168.21 103.395 168.383C102.38 168.752 101.659 168.823 101.23 168.595C100.824 168.359 100.621 167.76 100.621 166.8V159.708ZM125.287 148.571L127.486 147.771C128.613 147.36 129.515 146.768 130.192 145.994C130.891 145.187 131.241 144.256 131.241 143.2C131.241 142.168 130.914 141.507 130.26 141.217C129.606 140.903 128.602 140.992 127.249 141.485C126.865 141.624 126.516 141.764 126.2 141.902C125.884 142.041 125.58 142.2 125.287 142.379V148.571ZM127.959 151.846L120.179 154.678V142.114C120.179 141.658 120.303 141.253 120.551 140.899C120.799 140.544 121.126 140.221 121.532 139.93C122.276 139.371 123.144 138.851 124.137 138.37C125.151 137.88 126.2 137.438 127.283 137.044C130.327 135.936 132.616 135.787 134.15 136.597C135.684 137.383 136.45 138.94 136.45 141.268C136.45 142.708 136.078 144.139 135.334 145.562C134.612 146.953 133.609 148.206 132.323 149.322C131.06 150.406 129.606 151.247 127.959 151.846ZM127.012 150.895L131.613 148.068C132.131 148.648 132.661 149.211 133.203 149.758C133.767 150.297 134.297 150.824 134.793 151.339C135.311 151.846 135.774 152.326 136.18 152.778C136.586 153.206 136.913 153.579 137.161 153.897C136.958 154.691 136.597 155.386 136.078 155.983C135.559 156.556 134.973 156.961 134.319 157.199C133.485 157.503 132.842 157.545 132.391 157.325C131.962 157.073 131.556 156.693 131.173 156.185L127.012 150.895ZM120.179 152.626L125.321 150.755V160.115C125.118 160.26 124.791 160.44 124.34 160.652C123.889 160.888 123.426 161.092 122.953 161.265C121.938 161.634 121.216 161.705 120.788 161.477C120.382 161.24 120.179 160.642 120.179 159.682V152.626ZM160.256 136.491C160.256 138.987 159.794 141.267 158.869 143.332C157.967 145.364 156.715 147.116 155.114 148.587C153.535 150.049 151.742 151.146 149.735 151.876C147.728 152.607 145.935 152.816 144.356 152.502C142.778 152.189 141.537 151.344 140.635 149.969C139.733 148.569 139.282 146.621 139.282 144.125C139.282 141.629 139.744 139.361 140.669 137.32C141.594 135.256 142.845 133.504 144.424 132.066C146.003 130.603 147.773 129.515 149.735 128.8C151.72 128.078 153.501 127.874 155.08 128.187C156.681 128.468 157.944 129.305 158.869 130.696C159.794 132.063 160.256 133.995 160.256 136.491ZM154.945 138.424C154.945 136.12 154.471 134.541 153.524 133.685C152.599 132.822 151.336 132.682 149.735 133.264C148.201 133.823 146.961 134.874 146.014 136.419C145.067 137.94 144.593 139.864 144.593 142.192C144.593 144.544 145.055 146.152 145.98 147.015C146.927 147.846 148.19 147.975 149.769 147.4C151.348 146.826 152.599 145.782 153.524 144.269C154.471 142.725 154.945 140.776 154.945 138.424ZM183.943 127.87C183.943 130.366 183.48 132.646 182.556 134.711C181.654 136.743 180.402 138.495 178.801 139.965C177.222 141.428 175.429 142.525 173.422 143.255C171.415 143.986 169.622 144.194 168.043 143.881C166.464 143.567 165.224 142.723 164.322 141.347C163.42 139.948 162.969 138 162.969 135.504C162.969 133.008 163.431 130.74 164.356 128.699C165.28 126.634 166.532 124.883 168.111 123.444C169.689 121.982 171.46 120.893 173.422 120.179C175.407 119.457 177.188 119.252 178.767 119.566C180.368 119.847 181.631 120.683 182.556 122.075C183.48 123.442 183.943 125.374 183.943 127.87ZM178.632 129.803C178.632 127.499 178.158 125.919 177.211 125.064C176.286 124.201 175.023 124.06 173.422 124.643C171.888 125.201 170.648 126.253 169.701 127.798C168.754 129.318 168.28 131.243 168.28 133.571C168.28 135.923 168.742 137.53 169.667 138.394C170.614 139.225 171.877 139.353 173.456 138.779C175.034 138.204 176.286 137.161 177.211 135.648C178.158 134.103 178.632 132.155 178.632 129.803ZM192.812 126.622L187.704 128.481V118.545C187.704 117.633 187.952 116.835 188.449 116.15C188.945 115.441 189.61 114.935 190.444 114.631C190.918 114.459 191.369 114.331 191.798 114.247C192.249 114.155 192.587 114.092 192.812 114.058V126.622ZM190.377 128.336V123.944L200.559 120.238C200.695 120.429 200.819 120.696 200.931 121.039C201.044 121.357 201.101 121.733 201.101 122.165C201.101 122.933 200.931 123.571 200.593 124.078C200.277 124.553 199.838 124.893 199.274 125.098L190.377 128.336ZM190.444 119.023V114.631L201.709 110.531C201.845 110.698 201.969 110.953 202.082 111.296C202.194 111.639 202.251 112.026 202.251 112.458C202.251 113.226 202.082 113.864 201.743 114.371C201.428 114.846 200.988 115.186 200.424 115.391L190.444 119.023ZM187.704 126.357L192.846 124.485V135.537C192.643 135.683 192.316 135.862 191.865 136.074C191.414 136.311 190.952 136.515 190.478 136.687C189.463 137.057 188.742 137.127 188.313 136.899C187.907 136.663 187.704 136.077 187.704 135.141V126.357Z"/>
</mask>
<path d="M105.729 155.941L107.759 155.202C108.909 154.784 109.811 154.167 110.465 153.353C111.142 152.531 111.48 151.58 111.48 150.5C111.48 149.42 111.165 148.719 110.533 148.397C109.902 148.075 108.988 148.131 107.793 148.566C107.387 148.714 107.015 148.861 106.677 149.008C106.361 149.147 106.045 149.298 105.729 149.461V155.941ZM108.097 159.399L100.621 162.12V149.232C100.621 148.776 100.745 148.371 100.993 148.017C101.241 147.663 101.568 147.34 101.974 147.048C102.719 146.489 103.609 145.961 104.647 145.463C105.684 144.966 106.62 144.565 107.455 144.261C110.499 143.153 112.8 143.012 114.356 143.837C115.934 144.631 116.724 146.216 116.724 148.592C116.724 150.128 116.374 151.599 115.675 153.005C114.999 154.404 114.018 155.661 112.732 156.776C111.447 157.868 109.902 158.743 108.097 159.399ZM100.621 159.708L105.763 157.837V167.233C105.56 167.379 105.233 167.558 104.782 167.77C104.331 168.006 103.869 168.21 103.395 168.383C102.38 168.752 101.659 168.823 101.23 168.595C100.824 168.359 100.621 167.76 100.621 166.8V159.708ZM125.287 148.571L127.486 147.771C128.613 147.36 129.515 146.768 130.192 145.994C130.891 145.187 131.241 144.256 131.241 143.2C131.241 142.168 130.914 141.507 130.26 141.217C129.606 140.903 128.602 140.992 127.249 141.485C126.865 141.624 126.516 141.764 126.2 141.902C125.884 142.041 125.58 142.2 125.287 142.379V148.571ZM127.959 151.846L120.179 154.678V142.114C120.179 141.658 120.303 141.253 120.551 140.899C120.799 140.544 121.126 140.221 121.532 139.93C122.276 139.371 123.144 138.851 124.137 138.37C125.151 137.88 126.2 137.438 127.283 137.044C130.327 135.936 132.616 135.787 134.15 136.597C135.684 137.383 136.45 138.94 136.45 141.268C136.45 142.708 136.078 144.139 135.334 145.562C134.612 146.953 133.609 148.206 132.323 149.322C131.06 150.406 129.606 151.247 127.959 151.846ZM127.012 150.895L131.613 148.068C132.131 148.648 132.661 149.211 133.203 149.758C133.767 150.297 134.297 150.824 134.793 151.339C135.311 151.846 135.774 152.326 136.18 152.778C136.586 153.206 136.913 153.579 137.161 153.897C136.958 154.691 136.597 155.386 136.078 155.983C135.559 156.556 134.973 156.961 134.319 157.199C133.485 157.503 132.842 157.545 132.391 157.325C131.962 157.073 131.556 156.693 131.173 156.185L127.012 150.895ZM120.179 152.626L125.321 150.755V160.115C125.118 160.26 124.791 160.44 124.34 160.652C123.889 160.888 123.426 161.092 122.953 161.265C121.938 161.634 121.216 161.705 120.788 161.477C120.382 161.24 120.179 160.642 120.179 159.682V152.626ZM160.256 136.491C160.256 138.987 159.794 141.267 158.869 143.332C157.967 145.364 156.715 147.116 155.114 148.587C153.535 150.049 151.742 151.146 149.735 151.876C147.728 152.607 145.935 152.816 144.356 152.502C142.778 152.189 141.537 151.344 140.635 149.969C139.733 148.569 139.282 146.621 139.282 144.125C139.282 141.629 139.744 139.361 140.669 137.32C141.594 135.256 142.845 133.504 144.424 132.066C146.003 130.603 147.773 129.515 149.735 128.8C151.72 128.078 153.501 127.874 155.08 128.187C156.681 128.468 157.944 129.305 158.869 130.696C159.794 132.063 160.256 133.995 160.256 136.491ZM154.945 138.424C154.945 136.12 154.471 134.541 153.524 133.685C152.599 132.822 151.336 132.682 149.735 133.264C148.201 133.823 146.961 134.874 146.014 136.419C145.067 137.94 144.593 139.864 144.593 142.192C144.593 144.544 145.055 146.152 145.98 147.015C146.927 147.846 148.19 147.975 149.769 147.4C151.348 146.826 152.599 145.782 153.524 144.269C154.471 142.725 154.945 140.776 154.945 138.424ZM183.943 127.87C183.943 130.366 183.48 132.646 182.556 134.711C181.654 136.743 180.402 138.495 178.801 139.965C177.222 141.428 175.429 142.525 173.422 143.255C171.415 143.986 169.622 144.194 168.043 143.881C166.464 143.567 165.224 142.723 164.322 141.347C163.42 139.948 162.969 138 162.969 135.504C162.969 133.008 163.431 130.74 164.356 128.699C165.28 126.634 166.532 124.883 168.111 123.444C169.689 121.982 171.46 120.893 173.422 120.179C175.407 119.457 177.188 119.252 178.767 119.566C180.368 119.847 181.631 120.683 182.556 122.075C183.48 123.442 183.943 125.374 183.943 127.87ZM178.632 129.803C178.632 127.499 178.158 125.919 177.211 125.064C176.286 124.201 175.023 124.06 173.422 124.643C171.888 125.201 170.648 126.253 169.701 127.798C168.754 129.318 168.28 131.243 168.28 133.571C168.28 135.923 168.742 137.53 169.667 138.394C170.614 139.225 171.877 139.353 173.456 138.779C175.034 138.204 176.286 137.161 177.211 135.648C178.158 134.103 178.632 132.155 178.632 129.803ZM192.812 126.622L187.704 128.481V118.545C187.704 117.633 187.952 116.835 188.449 116.15C188.945 115.441 189.61 114.935 190.444 114.631C190.918 114.459 191.369 114.331 191.798 114.247C192.249 114.155 192.587 114.092 192.812 114.058V126.622ZM190.377 128.336V123.944L200.559 120.238C200.695 120.429 200.819 120.696 200.931 121.039C201.044 121.357 201.101 121.733 201.101 122.165C201.101 122.933 200.931 123.571 200.593 124.078C200.277 124.553 199.838 124.893 199.274 125.098L190.377 128.336ZM190.444 119.023V114.631L201.709 110.531C201.845 110.698 201.969 110.953 202.082 111.296C202.194 111.639 202.251 112.026 202.251 112.458C202.251 113.226 202.082 113.864 201.743 114.371C201.428 114.846 200.988 115.186 200.424 115.391L190.444 119.023ZM187.704 126.357L192.846 124.485V135.537C192.643 135.683 192.316 135.862 191.865 136.074C191.414 136.311 190.952 136.515 190.478 136.687C189.463 137.057 188.742 137.127 188.313 136.899C187.907 136.663 187.704 136.077 187.704 135.141V126.357Z" fill="white"/>
<path d="M105.729 155.941L105.26 156.112V156.612L105.729 156.441V155.941ZM110.465 153.353L110.172 153.07L110.166 153.077L110.465 153.353ZM106.677 149.008L106.645 148.521L106.643 148.522L106.677 149.008ZM105.729 149.461L105.663 148.99L105.26 149.199V149.632L105.729 149.461ZM100.621 162.12L100.151 162.291V162.791L100.621 162.62V162.12ZM100.993 148.017L101.326 148.25L101.326 148.25L100.993 148.017ZM101.974 147.048L102.123 147.468L102.135 147.459L101.974 147.048ZM114.356 143.837L114.053 144.33L114.059 144.333L114.356 143.837ZM115.675 153.005L115.28 152.878L115.277 152.885L115.675 153.005ZM112.732 156.776L112.927 157.16L112.933 157.155L112.732 156.776ZM100.621 159.708V159.208L100.151 159.379V159.879L100.621 159.708ZM105.763 157.837L106.233 157.666V157.166L105.763 157.337V157.837ZM105.763 167.233L105.912 167.653L106.233 167.422V167.062L105.763 167.233ZM104.782 167.77L104.735 167.289L104.724 167.295L104.713 167.301L104.782 167.77ZM101.23 168.595L100.918 169.082L100.928 169.087L101.23 168.595ZM105.729 155.941V156.441L107.759 155.702V155.202V154.702L105.729 155.441V155.941ZM107.759 155.202V155.702C108.98 155.258 110.001 154.581 110.765 153.63L110.465 153.353L110.166 153.077C109.622 153.754 108.839 154.31 107.759 154.702V155.202ZM110.465 153.353L110.759 153.637C111.567 152.655 111.95 151.532 111.95 150.329L111.48 150.5L111.01 150.671C111.01 151.628 110.717 152.407 110.172 153.07L110.465 153.353ZM111.48 150.5L111.95 150.329C111.95 149.139 111.597 148.293 110.831 147.902L110.533 148.397L110.235 148.892C110.732 149.145 111.01 149.701 111.01 150.671L111.48 150.5ZM110.533 148.397L110.831 147.902C110.085 147.521 109.048 147.609 107.793 148.066V148.566V149.066C108.928 148.653 109.719 148.628 110.235 148.892L110.533 148.397ZM107.793 148.566V148.066C107.379 148.217 106.996 148.369 106.645 148.521L106.677 149.008L106.708 149.496C107.034 149.354 107.395 149.211 107.793 149.066V148.566ZM106.677 149.008L106.643 148.522C106.316 148.666 105.99 148.822 105.663 148.99L105.729 149.461L105.796 149.932C106.101 149.775 106.405 149.629 106.71 149.495L106.677 149.008ZM105.729 149.461L105.26 149.632V156.112L105.729 155.941L106.199 155.77V149.29L105.729 149.461ZM108.097 159.399V158.899L100.621 161.62V162.12V162.62L108.097 159.899V159.399ZM100.621 162.12L101.091 161.949V149.061L100.621 149.232L100.151 149.403V162.291L100.621 162.12ZM100.621 149.232L101.091 149.061C101.091 148.707 101.184 148.451 101.326 148.25L100.993 148.017L100.661 147.784C100.306 148.291 100.151 148.846 100.151 149.403L100.621 149.232ZM100.993 148.017L101.326 148.25C101.512 147.983 101.771 147.721 102.123 147.468L101.974 147.048L101.826 146.628C101.366 146.958 100.971 147.342 100.661 147.784L100.993 148.017ZM101.974 147.048L102.135 147.459C102.835 146.934 103.687 146.427 104.698 145.942L104.647 145.463L104.596 144.985C103.532 145.495 102.603 146.044 101.814 146.636L101.974 147.048ZM104.647 145.463L104.698 145.942C105.722 145.45 106.641 145.058 107.455 144.761V144.261V143.761C106.6 144.072 105.646 144.481 104.596 144.985L104.647 145.463ZM107.455 144.261V144.761C110.442 143.674 112.615 143.567 114.053 144.33L114.356 143.837L114.658 143.345C112.984 142.456 110.557 142.632 107.455 143.761V144.261ZM114.356 143.837L114.059 144.333C115.517 145.066 116.254 146.52 116.254 148.763L116.724 148.592L117.194 148.421C117.194 145.911 116.352 144.196 114.652 143.342L114.356 143.837ZM116.724 148.592L116.254 148.763C116.254 150.214 115.925 151.581 115.28 152.878L115.675 153.005L116.07 153.133C116.824 151.616 117.194 150.041 117.194 148.421L116.724 148.592ZM115.675 153.005L115.277 152.885C114.653 154.174 113.745 155.344 112.531 156.398L112.732 156.776L112.933 157.155C114.29 155.977 115.344 154.633 116.074 153.125L115.675 153.005ZM112.732 156.776L112.537 156.393C111.327 157.42 109.852 158.261 108.097 158.899V159.399V159.899C109.951 159.225 111.566 158.317 112.927 157.16L112.732 156.776ZM100.621 159.708V160.208L105.763 158.337V157.837V157.337L100.621 159.208V159.708ZM105.763 157.837L105.293 158.008V167.404L105.763 167.233L106.233 167.062V157.666L105.763 157.837ZM105.763 167.233L105.615 166.813C105.464 166.921 105.181 167.08 104.735 167.289L104.782 167.77L104.829 168.25C105.285 168.036 105.656 167.837 105.912 167.653L105.763 167.233ZM104.782 167.77L104.713 167.301C104.285 167.525 103.846 167.719 103.395 167.883V168.383V168.883C103.891 168.702 104.377 168.488 104.852 168.239L104.782 167.77ZM103.395 168.383V167.883C102.411 168.241 101.831 168.261 101.533 168.102L101.23 168.595L100.928 169.087C101.486 169.385 102.35 169.263 103.395 168.883V168.383ZM101.23 168.595L101.542 168.107C101.287 167.959 101.091 167.538 101.091 166.629L100.621 166.8L100.151 166.971C100.151 167.983 100.362 168.758 100.918 169.082L101.23 168.595ZM100.621 166.8L101.091 166.629V159.537L100.621 159.708L100.151 159.879V166.971L100.621 166.8ZM125.287 148.571L124.817 148.742V149.242L125.287 149.071V148.571ZM130.192 145.994L130.47 146.296L130.472 146.293L130.192 145.994ZM130.26 141.217L129.968 141.715L129.976 141.719L130.26 141.217ZM126.2 141.902L126.167 141.416L126.167 141.416L126.2 141.902ZM125.287 142.379L125.181 141.93L124.817 142.152V142.55L125.287 142.379ZM120.179 154.678L119.709 154.849V155.349L120.179 155.178V154.678ZM120.551 140.899L120.883 141.131L120.883 141.131L120.551 140.899ZM121.532 139.93L121.68 140.35L121.692 140.341L121.532 139.93ZM124.137 138.37L124.085 137.892L124.084 137.892L124.137 138.37ZM134.15 136.597L133.848 137.09L133.851 137.092L134.15 136.597ZM135.334 145.562L134.947 145.42L134.946 145.422L135.334 145.562ZM132.323 149.322L132.521 149.703L132.524 149.701L132.323 149.322ZM127.012 150.895L126.904 150.447L126.253 150.847L126.618 151.311L127.012 150.895ZM131.613 148.068L131.994 147.638L131.811 147.433L131.505 147.621L131.613 148.068ZM133.203 149.758L132.831 150.199L132.837 150.205L133.203 149.758ZM134.793 151.339L134.418 151.778L134.425 151.784L134.793 151.339ZM136.18 152.778L135.798 153.209L135.804 153.215L136.18 152.778ZM137.161 153.897L137.611 153.877L137.673 153.633L137.555 153.482L137.161 153.897ZM136.078 155.983L136.347 156.296L136.352 156.29L136.357 156.284L136.078 155.983ZM132.391 157.325L132.078 157.812L132.087 157.818L132.097 157.823L132.391 157.325ZM131.173 156.185L131.571 155.773L131.567 155.768L131.173 156.185ZM120.179 152.626V152.126L119.709 152.297V152.797L120.179 152.626ZM125.321 150.755L125.79 150.584V150.084L125.321 150.255V150.755ZM125.321 160.115L125.469 160.535L125.79 160.304V159.944L125.321 160.115ZM124.34 160.652L124.293 160.171L124.281 160.177L124.27 160.183L124.34 160.652ZM120.788 161.477L120.475 161.964L120.485 161.969L120.788 161.477ZM125.287 148.571V149.071L127.486 148.271V147.771V147.271L125.287 148.071V148.571ZM127.486 147.771V148.271C128.679 147.836 129.689 147.189 130.47 146.296L130.192 145.994L129.914 145.692C129.342 146.346 128.547 146.884 127.486 147.271V147.771ZM130.192 145.994L130.472 146.293C131.308 145.328 131.711 144.218 131.711 143.029L131.241 143.2L130.771 143.371C130.771 144.294 130.474 145.046 129.912 145.694L130.192 145.994ZM131.241 143.2L131.711 143.029C131.711 141.872 131.337 141.067 130.544 140.715L130.26 141.217L129.976 141.719C130.491 141.947 130.771 142.463 130.771 143.371L131.241 143.2ZM130.26 141.217L130.552 140.719C129.777 140.347 128.647 140.476 127.249 140.985V141.485V141.985C128.557 141.509 129.434 141.459 129.968 141.715L130.26 141.217ZM127.249 141.485V140.985C126.857 141.128 126.496 141.271 126.167 141.416L126.2 141.902L126.234 142.389C126.536 142.256 126.874 142.121 127.249 141.985V141.485ZM126.2 141.902L126.167 141.416C125.828 141.565 125.499 141.736 125.181 141.93L125.287 142.379L125.392 142.828C125.661 142.664 125.941 142.518 126.234 142.389L126.2 141.902ZM125.287 142.379L124.817 142.55V148.742L125.287 148.571L125.757 148.4V142.208L125.287 142.379ZM127.959 151.846V151.346L120.179 154.178V154.678V155.178L127.959 152.346V151.846ZM120.179 154.678L120.648 154.507V141.943L120.179 142.114L119.709 142.285V154.849L120.179 154.678ZM120.179 142.114L120.648 141.943C120.648 141.589 120.742 141.333 120.883 141.131L120.551 140.899L120.218 140.666C119.863 141.173 119.709 141.728 119.709 142.285L120.179 142.114ZM120.551 140.899L120.883 141.131C121.069 140.865 121.329 140.603 121.68 140.35L121.532 139.93L121.383 139.509C120.923 139.84 120.528 140.224 120.218 140.666L120.551 140.899ZM121.532 139.93L121.692 140.341C122.394 139.814 123.225 139.315 124.19 138.847L124.137 138.37L124.084 137.892C123.064 138.387 122.158 138.927 121.371 139.518L121.532 139.93ZM124.137 138.37L124.188 138.848C125.185 138.367 126.216 137.933 127.283 137.544V137.044V136.544C126.184 136.944 125.118 137.393 124.085 137.892L124.137 138.37ZM127.283 137.044V137.544C130.272 136.456 132.433 136.343 133.848 137.09L134.15 136.597L134.452 136.104C132.799 135.231 130.382 135.416 127.283 136.544V137.044ZM134.15 136.597L133.851 137.092C135.265 137.816 135.98 139.243 135.98 141.439L136.45 141.268L136.92 141.097C136.92 138.636 136.102 136.95 134.449 136.102L134.15 136.597ZM136.45 141.268L135.98 141.439C135.98 142.781 135.635 144.103 134.947 145.42L135.334 145.562L135.721 145.704C136.521 144.175 136.92 142.635 136.92 141.097L136.45 141.268ZM135.334 145.562L134.946 145.422C134.276 146.712 133.34 147.886 132.122 148.943L132.323 149.322L132.524 149.701C133.877 148.526 134.949 147.193 135.722 145.702L135.334 145.562ZM132.323 149.322L132.125 148.94C130.935 149.962 129.55 150.767 127.959 151.346V151.846V152.346C129.662 151.727 131.186 150.849 132.521 149.703L132.323 149.322ZM127.012 150.895L127.12 151.343L131.72 148.516L131.613 148.068L131.505 147.621L126.904 150.447L127.012 150.895ZM131.613 148.068L131.231 148.499C131.753 149.082 132.287 149.649 132.831 150.199L133.203 149.758L133.574 149.316C133.036 148.773 132.51 148.213 131.994 147.638L131.613 148.068ZM133.203 149.758L132.837 150.205C133.398 150.741 133.925 151.265 134.418 151.777L134.793 151.339L135.167 150.901C134.668 150.382 134.135 149.852 133.568 149.311L133.203 149.758ZM134.793 151.339L134.425 151.784C134.94 152.287 135.397 152.762 135.798 153.209L136.18 152.778L136.561 152.347C136.15 151.889 135.683 151.405 135.161 150.894L134.793 151.339ZM136.18 152.778L135.804 153.215C136.206 153.639 136.526 154.005 136.766 154.312L137.161 153.897L137.555 153.482C137.299 153.154 136.965 152.774 136.556 152.341L136.18 152.778ZM137.161 153.897L136.711 153.917C136.534 154.608 136.228 155.189 135.799 155.683L136.078 155.983L136.357 156.284C136.966 155.584 137.382 154.774 137.611 153.877L137.161 153.897ZM136.078 155.983L135.81 155.67C135.373 156.153 134.881 156.495 134.319 156.699V157.199V157.699C135.065 157.428 135.746 156.959 136.347 156.296L136.078 155.983ZM134.319 157.199V156.699C133.545 156.981 133.022 156.993 132.684 156.828L132.391 157.325L132.097 157.823C132.662 158.098 133.424 158.025 134.319 157.699V157.199ZM132.391 157.325L132.704 156.839C132.315 156.61 131.936 156.258 131.571 155.773L131.173 156.185L130.775 156.596C131.177 157.128 131.609 157.537 132.078 157.812L132.391 157.325ZM131.173 156.185L131.567 155.768L127.406 150.479L127.012 150.895L126.618 151.311L130.779 156.601L131.173 156.185ZM120.179 152.626V153.126L125.321 151.255V150.755V150.255L120.179 152.126V152.626ZM125.321 150.755L124.851 150.926V160.286L125.321 160.115L125.79 159.944V150.584L125.321 150.755ZM125.321 160.115L125.172 159.694C125.022 159.802 124.739 159.961 124.293 160.171L124.34 160.652L124.386 161.132C124.842 160.918 125.214 160.719 125.469 160.535L125.321 160.115ZM124.34 160.652L124.27 160.183C123.843 160.406 123.404 160.6 122.953 160.765V161.265V161.765C123.449 161.584 123.934 161.369 124.409 161.121L124.34 160.652ZM122.953 161.265V160.765C121.969 161.123 121.388 161.143 121.09 160.984L120.788 161.477L120.485 161.969C121.044 162.267 121.907 162.145 122.953 161.765V161.265ZM120.788 161.477L121.1 160.989C120.844 160.84 120.648 160.419 120.648 159.511L120.179 159.682L119.709 159.853C119.709 160.865 119.919 161.64 120.475 161.964L120.788 161.477ZM120.179 159.682L120.648 159.511V152.455L120.179 152.626L119.709 152.797V159.853L120.179 159.682ZM158.869 143.332L158.461 143.233L158.46 143.236L158.869 143.332ZM155.114 148.587L154.897 148.222L154.894 148.225L155.114 148.587ZM140.635 149.969L140.224 150.361L140.226 150.363L140.635 149.969ZM140.669 137.32L141.076 137.422L141.077 137.419L140.669 137.32ZM144.424 132.066L144.639 132.432L144.643 132.428L144.424 132.066ZM155.08 128.187L154.86 128.709L154.868 128.71L155.08 128.187ZM158.869 130.696L158.461 131.092L158.462 131.094L158.869 130.696ZM153.524 133.685L153.161 134.135L153.164 134.138L153.524 133.685ZM146.014 136.419L146.371 136.614L146.374 136.61L146.014 136.419ZM145.98 147.015L145.617 147.465L145.623 147.47L145.98 147.015ZM153.524 144.269L153.164 144.079L153.164 144.08L153.524 144.269ZM160.256 136.491L159.786 136.662C159.786 139.093 159.336 141.279 158.461 143.233L158.869 143.332L159.277 143.431C160.251 141.256 160.726 138.881 160.726 136.32L160.256 136.491ZM158.869 143.332L158.46 143.236C157.601 145.169 156.416 146.827 154.897 148.222L155.114 148.587L155.331 148.951C157.014 147.405 158.332 145.56 159.278 143.428L158.869 143.332ZM155.114 148.587L154.894 148.225C153.391 149.617 151.675 150.67 149.735 151.376V151.876V152.376C151.809 151.622 153.679 150.482 155.333 148.949L155.114 148.587ZM149.735 151.876V151.376C147.795 152.083 146.079 152.279 144.576 151.98L144.356 152.502L144.137 153.024C145.791 153.353 147.661 153.131 149.735 152.376V151.876ZM144.356 152.502L144.576 151.98C143.079 151.683 141.904 150.884 141.044 149.574L140.635 149.969L140.226 150.363C141.171 151.804 142.476 152.694 144.137 153.024L144.356 152.502ZM140.635 149.969L141.046 149.576C140.191 148.251 139.752 146.387 139.752 143.954L139.282 144.125L138.812 144.296C138.812 146.855 139.275 148.887 140.224 150.361L140.635 149.969ZM139.282 144.125L139.752 143.954C139.752 141.523 140.202 139.35 141.076 137.422L140.669 137.32L140.262 137.218C139.286 139.371 138.812 141.736 138.812 144.296L139.282 144.125ZM140.669 137.32L141.077 137.419C141.959 135.45 143.146 133.793 144.639 132.432L144.424 132.066L144.209 131.699C142.545 133.216 141.228 135.062 140.261 137.221L140.669 137.32ZM144.424 132.066L144.643 132.428C146.148 131.034 147.842 129.99 149.735 129.3V128.8V128.3C147.704 129.04 145.857 130.172 144.204 131.703L144.424 132.066ZM149.735 128.8V129.3C151.652 128.603 153.357 128.411 154.86 128.709L155.08 128.187L155.3 127.665C153.646 127.337 151.788 127.553 149.735 128.3V128.8ZM155.08 128.187L154.868 128.71C156.383 128.977 157.58 129.766 158.461 131.092L158.869 130.696L159.277 130.3C158.309 128.843 156.979 127.96 155.292 127.664L155.08 128.187ZM158.869 130.696L158.462 131.094C159.336 132.386 159.786 134.231 159.786 136.662L160.256 136.491L160.726 136.32C160.726 133.76 160.251 131.741 159.276 130.298L158.869 130.696ZM154.945 138.424L155.415 138.253C155.415 135.885 154.929 134.177 153.884 133.233L153.524 133.685L153.164 134.138C154.013 134.905 154.475 136.355 154.475 138.595L154.945 138.424ZM153.524 133.685L153.887 133.236C152.864 132.281 151.461 132.136 149.735 132.764V133.264V133.764C151.211 133.227 152.335 133.363 153.161 134.135L153.524 133.685ZM149.735 133.264V132.764C148.069 133.371 146.695 134.531 145.654 136.228L146.014 136.419L146.374 136.61C147.227 135.217 148.334 134.275 149.735 133.764V133.264ZM146.014 136.419L145.657 136.223C144.608 137.908 144.123 139.974 144.123 142.363L144.593 142.192L145.063 142.021C145.063 139.754 145.525 137.971 146.371 136.614L146.014 136.419ZM144.593 142.192L144.123 142.363C144.123 144.774 144.595 146.511 145.617 147.464L145.98 147.015L146.343 146.566C145.515 145.793 145.063 144.314 145.063 142.021L144.593 142.192ZM145.98 147.015L145.623 147.47C146.668 148.387 148.066 148.52 149.769 147.9V147.4V146.9C148.314 147.43 147.187 147.306 146.337 146.56L145.98 147.015ZM149.769 147.4V147.9C151.472 147.28 152.861 146.133 153.884 144.459L153.524 144.269L153.164 144.08C152.337 145.431 151.224 146.371 149.769 146.9V147.4ZM153.524 144.269L153.884 144.46C154.93 142.754 155.415 140.666 155.415 138.253L154.945 138.424L154.475 138.595C154.475 140.886 154.012 142.696 153.164 144.079L153.524 144.269ZM182.556 134.711L182.147 134.612L182.146 134.614L182.556 134.711ZM178.801 139.965L178.584 139.601L178.581 139.603L178.801 139.965ZM164.322 141.347L163.911 141.74L163.913 141.742L164.322 141.347ZM164.356 128.699L164.763 128.801L164.764 128.798L164.356 128.699ZM168.111 123.444L168.326 123.811L168.33 123.806L168.111 123.444ZM178.767 119.566L178.547 120.088L178.554 120.089L178.767 119.566ZM182.556 122.075L182.147 122.471L182.149 122.473L182.556 122.075ZM177.211 125.064L176.847 125.513L176.851 125.517L177.211 125.064ZM169.701 127.798L170.057 127.993L170.06 127.988L169.701 127.798ZM169.667 138.394L169.303 138.843L169.31 138.849L169.667 138.394ZM177.211 135.648L176.851 135.457L176.85 135.458L177.211 135.648ZM183.943 127.87L183.473 128.041C183.473 130.472 183.023 132.658 182.147 134.612L182.556 134.711L182.964 134.81C183.938 132.635 184.413 130.26 184.413 127.699L183.943 127.87ZM182.556 134.711L182.146 134.614C181.288 136.548 180.103 138.206 178.584 139.601L178.801 139.965L179.018 140.33C180.701 138.783 182.019 136.938 182.965 134.807L182.556 134.711ZM178.801 139.965L178.581 139.603C177.078 140.996 175.362 142.049 173.422 142.755V143.255V143.755C175.496 143 177.366 141.86 179.02 140.328L178.801 139.965ZM173.422 143.255V142.755C171.482 143.461 169.766 143.657 168.263 143.359L168.043 143.881L167.824 144.403C169.478 144.731 171.348 144.51 173.422 143.755V143.255ZM168.043 143.881L168.263 143.359C166.766 143.062 165.591 142.263 164.731 140.953L164.322 141.347L163.913 141.742C164.858 143.183 166.163 144.073 167.824 144.403L168.043 143.881ZM164.322 141.347L164.733 140.955C163.878 139.629 163.439 137.766 163.439 135.333L162.969 135.504L162.499 135.675C162.499 138.234 162.961 140.266 163.911 141.74L164.322 141.347ZM162.969 135.504L163.439 135.333C163.439 132.901 163.889 130.729 164.763 128.801L164.356 128.699L163.949 128.597C162.973 130.75 162.499 133.114 162.499 135.675L162.969 135.504ZM164.356 128.699L164.764 128.798C165.646 126.828 166.832 125.171 168.326 123.811L168.111 123.444L167.896 123.078C166.232 124.594 164.915 126.44 163.947 128.6L164.356 128.699ZM168.111 123.444L168.33 123.806C169.835 122.413 171.529 121.368 173.422 120.679V120.179V119.679C171.391 120.418 169.544 121.551 167.891 123.082L168.111 123.444ZM173.422 120.179V120.679C175.339 119.982 177.044 119.789 178.547 120.088L178.767 119.566L178.986 119.044C177.333 118.716 175.474 118.932 173.422 119.679V120.179ZM178.767 119.566L178.554 120.089C180.07 120.355 181.266 121.145 182.147 122.471L182.556 122.075L182.964 121.679C181.996 120.222 180.666 119.339 178.979 119.042L178.767 119.566ZM182.556 122.075L182.149 122.473C183.023 123.765 183.473 125.61 183.473 128.041L183.943 127.87L184.413 127.699C184.413 125.138 183.938 123.119 182.963 121.677L182.556 122.075ZM178.632 129.803L179.101 129.632C179.101 127.264 178.616 125.555 177.571 124.612L177.211 125.064L176.851 125.517C177.7 126.283 178.162 127.734 178.162 129.974L178.632 129.803ZM177.211 125.064L177.574 124.615C176.551 123.659 175.148 123.515 173.422 124.143V124.643V125.143C174.898 124.606 176.021 124.742 176.847 125.513L177.211 125.064ZM173.422 124.643V124.143C171.756 124.749 170.382 125.91 169.341 127.607L169.701 127.798L170.06 127.988C170.914 126.596 172.021 125.653 173.422 125.143V124.643ZM169.701 127.798L169.344 127.602C168.295 129.287 167.81 131.352 167.81 133.742L168.28 133.571L168.75 133.4C168.75 131.133 169.212 129.35 170.057 127.993L169.701 127.798ZM168.28 133.571L167.81 133.742C167.81 136.152 168.282 137.89 169.304 138.843L169.667 138.394L170.03 137.945C169.202 137.171 168.75 135.693 168.75 133.4L168.28 133.571ZM169.667 138.394L169.31 138.849C170.355 139.766 171.753 139.899 173.456 139.279V138.779V138.279C172.001 138.808 170.873 138.684 170.024 137.939L169.667 138.394ZM173.456 138.779V139.279C175.158 138.659 176.548 137.512 177.571 135.838L177.211 135.648L176.85 135.458C176.024 136.81 174.91 137.749 173.456 138.279V138.779ZM177.211 135.648L177.571 135.839C178.617 134.132 179.101 132.045 179.101 129.632L178.632 129.803L178.162 129.974C178.162 132.265 177.699 134.074 176.851 135.457L177.211 135.648ZM192.812 126.622V127.122L193.282 126.951V126.451L192.812 126.622ZM187.704 128.481L187.234 128.652V129.152L187.704 128.981V128.481ZM188.449 116.15L188.773 116.394L188.781 116.383L188.449 116.15ZM191.798 114.247L191.724 114.768L191.728 114.767L191.798 114.247ZM192.812 114.058L193.282 113.887V113.477L192.905 113.534L192.812 114.058ZM190.377 128.336L189.907 128.507V129.007L190.377 128.836V128.336ZM190.377 123.944V123.444L189.907 123.615V124.115L190.377 123.944ZM200.559 120.238L200.962 119.834L200.825 119.641L200.559 119.738V120.238ZM200.931 121.039L200.483 121.351L200.486 121.359L200.931 121.039ZM200.593 124.078L200.25 123.86L200.25 123.862L200.593 124.078ZM190.444 119.023L189.975 119.194V119.694L190.444 119.523V119.023ZM190.444 114.631V114.131L189.975 114.302V114.802L190.444 114.631ZM201.709 110.531L202.1 110.112L201.961 109.94L201.709 110.031V110.531ZM202.082 111.296L201.633 111.608L201.633 111.608L202.082 111.296ZM201.743 114.371L201.401 114.154L201.4 114.155L201.743 114.371ZM187.704 126.357V125.857L187.234 126.028V126.528L187.704 126.357ZM192.846 124.485L193.316 124.314V123.814L192.846 123.985V124.485ZM192.846 135.537L192.995 135.958L193.316 135.727V135.366L192.846 135.537ZM191.865 136.074L191.819 135.594L191.807 135.599L191.796 135.605L191.865 136.074ZM188.313 136.899L188.001 137.387L188.011 137.392L188.313 136.899ZM192.812 126.622V126.122L187.704 127.981V128.481V128.981L192.812 127.122V126.622ZM187.704 128.481L188.174 128.31V118.374L187.704 118.545L187.234 118.716V128.652L187.704 128.481ZM187.704 118.545L188.174 118.374C188.174 117.562 188.392 116.92 188.773 116.394L188.449 116.15L188.124 115.906C187.513 116.75 187.234 117.703 187.234 118.716L187.704 118.545ZM188.449 116.15L188.781 116.383C189.172 115.823 189.709 115.399 190.444 115.131V114.631V114.131C189.511 114.471 188.717 115.059 188.116 115.917L188.449 116.15ZM190.444 114.631V115.131C190.896 114.967 191.322 114.846 191.724 114.768L191.798 114.247L191.871 113.726C191.416 113.816 190.94 113.951 190.444 114.131V114.631ZM191.798 114.247L191.728 114.767C192.177 114.675 192.506 114.614 192.72 114.581L192.812 114.058L192.905 113.534C192.668 113.57 192.32 113.635 191.867 113.727L191.798 114.247ZM192.812 114.058L192.343 114.229V126.793L192.812 126.622L193.282 126.451V113.887L192.812 114.058ZM190.377 128.336L190.847 128.165V123.773L190.377 123.944L189.907 124.115V128.507L190.377 128.336ZM190.377 123.944V124.444L200.559 120.738V120.238V119.738L190.377 123.444V123.944ZM200.559 120.238L200.156 120.642C200.266 120.797 200.377 121.028 200.483 121.351L200.931 121.039L201.38 120.726C201.26 120.363 201.123 120.061 200.962 119.834L200.559 120.238ZM200.931 121.039L200.486 121.359C200.58 121.627 200.631 121.95 200.631 122.336L201.101 122.165L201.57 121.994C201.57 121.516 201.508 121.088 201.377 120.718L200.931 121.039ZM201.101 122.165L200.631 122.336C200.631 123.035 200.476 123.522 200.25 123.86L200.593 124.078L200.936 124.295C201.387 123.619 201.57 122.831 201.57 121.994L201.101 122.165ZM200.593 124.078L200.25 123.862C200.042 124.174 199.738 124.429 199.274 124.598V125.098V125.598C199.937 125.356 200.513 124.931 200.937 124.294L200.593 124.078ZM199.274 125.098V124.598L190.377 127.836V128.336V128.836L199.274 125.598V125.098ZM190.444 119.023L190.914 118.852V114.46L190.444 114.631L189.975 114.802V119.194L190.444 119.023ZM190.444 114.631V115.131L201.709 111.031V110.531V110.031L190.444 114.131V114.631ZM201.709 110.531L201.319 110.951C201.419 111.075 201.527 111.286 201.633 111.608L202.082 111.296L202.53 110.984C202.41 110.62 202.27 110.321 202.1 110.112L201.709 110.531ZM202.082 111.296L201.633 111.608C201.731 111.905 201.781 112.244 201.781 112.629L202.251 112.458L202.721 112.287C202.721 111.808 202.658 111.373 202.53 110.984L202.082 111.296ZM202.251 112.458L201.781 112.629C201.781 113.328 201.626 113.815 201.401 114.154L201.743 114.371L202.086 114.588C202.537 113.913 202.721 113.125 202.721 112.287L202.251 112.458ZM201.743 114.371L201.4 114.155C201.192 114.468 200.888 114.722 200.424 114.891V115.391V115.891C201.087 115.65 201.663 115.224 202.087 114.587L201.743 114.371ZM200.424 115.391V114.891L190.444 118.523V119.023V119.523L200.424 115.891V115.391ZM187.704 126.357V126.857L192.846 124.985V124.485V123.985L187.704 125.857V126.357ZM192.846 124.485L192.376 124.656V135.708L192.846 135.537L193.316 135.366V124.314L192.846 124.485ZM192.846 135.537L192.698 135.117C192.547 135.225 192.264 135.384 191.819 135.594L191.865 136.074L191.912 136.555C192.368 136.34 192.739 136.141 192.995 135.958L192.846 135.537ZM191.865 136.074L191.796 135.605C191.368 135.829 190.929 136.023 190.478 136.187V136.687V137.187C190.974 137.007 191.46 136.792 191.935 136.543L191.865 136.074ZM190.478 136.687V136.187C189.494 136.545 188.914 136.565 188.616 136.407L188.313 136.899L188.011 137.392C188.57 137.689 189.433 137.568 190.478 137.187V136.687ZM188.313 136.899L188.625 136.412C188.368 136.262 188.174 135.849 188.174 134.97L187.704 135.141L187.234 135.312C187.234 136.304 187.447 137.064 188.001 137.386L188.313 136.899ZM187.704 135.141L188.174 134.97V126.186L187.704 126.357L187.234 126.528V135.312L187.704 135.141Z" fill="url(#paint13_linear_2004_4773)" style="mix-blend-mode:darken" mask="url(#path-22-outside-3_2004_4773)"/>
<defs>
<filter id="filter0_dd_2004_4773" x="0.70459" y="64.4853" width="303.779" height="199.018" filterUnits="userSpaceOnUse" color-interpolation-filters="sRGB">
<feFlood flood-opacity="0" result="BackgroundImageFix"/>
<feColorMatrix in="SourceAlpha" type="matrix" values="0 0 0 0 0 0 0 0 0 0 0 0 0 0 0 0 0 0 127 0" result="hardAlpha"/>
<feOffset dy="6"/>
<feGaussianBlur stdDeviation="9"/>
<feColorMatrix type="matrix" values="0 0 0 0 0 0 0 0 0 0 0 0 0 0 0 0 0 0 0.16 0"/>
<feBlend mode="normal" in2="BackgroundImageFix" result="effect1_dropShadow_2004_4773"/>
<feColorMatrix in="SourceAlpha" type="matrix" values="0 0 0 0 0 0 0 0 0 0 0 0 0 0 0 0 0 0 127 0" result="hardAlpha"/>
<feOffset dy="3"/>
<feGaussianBlur stdDeviation="3"/>
<feColorMatrix type="matrix" values="0 0 0 0 0 0 0 0 0 0 0 0 0 0 0 0 0 0 0.24 0"/>
<feBlend mode="normal" in2="effect1_dropShadow_2004_4773" result="effect2_dropShadow_2004_4773"/>
<feBlend mode="normal" in="SourceGraphic" in2="effect2_dropShadow_2004_4773" result="shape"/>
</filter>
<filter id="filter1_dddd_2004_4773" x="24" y="38" width="258" height="313" filterUnits="userSpaceOnUse" color-interpolation-filters="sRGB">
<feFlood flood-opacity="0" result="BackgroundImageFix"/>
<feColorMatrix in="SourceAlpha" type="matrix" values="0 0 0 0 0 0 0 0 0 0 0 0 0 0 0 0 0 0 127 0" result="hardAlpha"/>
<feOffset dy="5"/>
<feGaussianBlur stdDeviation="5.5"/>
<feColorMatrix type="matrix" values="0 0 0 0 0 0 0 0 0 0 0 0 0 0 0 0 0 0 0.24 0"/>
<feBlend mode="normal" in2="BackgroundImageFix" result="effect1_dropShadow_2004_4773"/>
<feColorMatrix in="SourceAlpha" type="matrix" values="0 0 0 0 0 0 0 0 0 0 0 0 0 0 0 0 0 0 127 0" result="hardAlpha"/>
<feOffset dy="21"/>
<feGaussianBlur stdDeviation="10.5"/>
<feColorMatrix type="matrix" values="0 0 0 0 0 0 0 0 0 0 0 0 0 0 0 0 0 0 0.21 0"/>
<feBlend mode="normal" in2="effect1_dropShadow_2004_4773" result="effect2_dropShadow_2004_4773"/>
<feColorMatrix in="SourceAlpha" type="matrix" values="0 0 0 0 0 0 0 0 0 0 0 0 0 0 0 0 0 0 127 0" result="hardAlpha"/>
<feOffset dy="46"/>
<feGaussianBlur stdDeviation="14"/>
<feColorMatrix type="matrix" values="0 0 0 0 0 0 0 0 0 0 0 0 0 0 0 0 0 0 0.12 0"/>
<feBlend mode="normal" in2="effect2_dropShadow_2004_4773" result="effect3_dropShadow_2004_4773"/>
<feColorMatrix in="SourceAlpha" type="matrix" values="0 0 0 0 0 0 0 0 0 0 0 0 0 0 0 0 0 0 127 0" result="hardAlpha"/>
<feOffset dy="82"/>
<feGaussianBlur stdDeviation="16.5"/>
<feColorMatrix type="matrix" values="0 0 0 0 0 0 0 0 0 0 0 0 0 0 0 0 0 0 0.04 0"/>
<feBlend mode="normal" in2="effect3_dropShadow_2004_4773" result="effect4_dropShadow_2004_4773"/>
<feBlend mode="normal" in="SourceGraphic" in2="effect4_dropShadow_2004_4773" result="shape"/>
</filter>
<filter id="filter2_d_2004_4773" x="49" y="38" width="208" height="208" filterUnits="userSpaceOnUse" color-interpolation-filters="sRGB">
<feFlood flood-opacity="0" result="BackgroundImageFix"/>
<feColorMatrix in="SourceAlpha" type="matrix" values="0 0 0 0 0 0 0 0 0 0 0 0 0 0 0 0 0 0 127 0" result="hardAlpha"/>
<feOffset dy="2"/>
<feGaussianBlur stdDeviation="4"/>
<feColorMatrix type="matrix" values="0 0 0 0 0 0 0 0 0 0 0 0 0 0 0 0 0 0 0.16 0"/>
<feBlend mode="color-burn" in2="BackgroundImageFix" result="effect1_dropShadow_2004_4773"/>
<feBlend mode="normal" in="SourceGraphic" in2="effect1_dropShadow_2004_4773" result="shape"/>
</filter>
<filter id="filter3_dd_2004_4773" x="18.0547" y="56.1476" width="265.285" height="181.533" filterUnits="userSpaceOnUse" color-interpolation-filters="sRGB">
<feFlood flood-opacity="0" result="BackgroundImageFix"/>
<feColorMatrix in="SourceAlpha" type="matrix" values="0 0 0 0 0 0 0 0 0 0 0 0 0 0 0 0 0 0 127 0" result="hardAlpha"/>
<feOffset dy="6"/>
<feGaussianBlur stdDeviation="9"/>
<feColorMatrix type="matrix" values="0 0 0 0 0 0 0 0 0 0 0 0 0 0 0 0 0 0 0.16 0"/>
<feBlend mode="normal" in2="BackgroundImageFix" result="effect1_dropShadow_2004_4773"/>
<feColorMatrix in="SourceAlpha" type="matrix" values="0 0 0 0 0 0 0 0 0 0 0 0 0 0 0 0 0 0 127 0" result="hardAlpha"/>
<feOffset dy="3"/>
<feGaussianBlur stdDeviation="3"/>
<feColorMatrix type="matrix" values="0 0 0 0 0 0 0 0 0 0 0 0 0 0 0 0 0 0 0.24 0"/>
<feBlend mode="normal" in2="effect1_dropShadow_2004_4773" result="effect2_dropShadow_2004_4773"/>
<feBlend mode="normal" in="SourceGraphic" in2="effect2_dropShadow_2004_4773" result="shape"/>
</filter>
<linearGradient id="paint0_linear_2004_4773" x1="160.094" y1="120.994" x2="182.27" y2="181.923" gradientUnits="userSpaceOnUse">
<stop stop-opacity="0"/>
<stop offset="1" stop-opacity="0.16"/>
</linearGradient>
<linearGradient id="paint1_linear_2004_4773" x1="13.7051" y1="174.275" x2="35.8813" y2="235.204" gradientUnits="userSpaceOnUse">
<stop stop-color="white"/>
<stop offset="1" stop-color="white" stop-opacity="0"/>
</linearGradient>
<linearGradient id="paint2_linear_2004_4773" x1="153" y1="31.7284" x2="153" y2="246.82" gradientUnits="userSpaceOnUse">
<stop stop-color="white"/>
<stop offset="1" stop-color="white" stop-opacity="0"/>
</linearGradient>
<radialGradient id="paint3_radial_2004_4773" cx="0" cy="0" r="1" gradientUnits="userSpaceOnUse" gradientTransform="translate(153 93.51) rotate(90) scale(141.869 107.639)">
<stop stop-color="white"/>
<stop offset="1" stop-color="white" stop-opacity="0"/>
</radialGradient>
<linearGradient id="paint4_linear_2004_4773" x1="153" y1="31.7284" x2="153" y2="246.82" gradientUnits="userSpaceOnUse">
<stop stop-color="white"/>
<stop offset="1" stop-color="white" stop-opacity="0"/>
</linearGradient>
<radialGradient id="paint5_radial_2004_4773" cx="0" cy="0" r="1" gradientUnits="userSpaceOnUse" gradientTransform="translate(153 93.51) rotate(90) scale(141.869 107.639)">
<stop stop-color="white"/>
<stop offset="1" stop-color="white" stop-opacity="0"/>
</radialGradient>
<linearGradient id="paint6_linear_2004_4773" x1="13" y1="0" x2="13" y2="280" gradientUnits="userSpaceOnUse">
<stop offset="0.135095" stop-color="white"/>
<stop offset="0.877908" stop-color="white" stop-opacity="0.01"/>
</linearGradient>
<linearGradient id="paint7_linear_2004_4773" x1="153" y1="44" x2="153" y2="236" gradientUnits="userSpaceOnUse">
<stop stop-color="white"/>
<stop offset="1" stop-color="#999999"/>
</linearGradient>
<linearGradient id="paint8_linear_2004_4773" x1="122" y1="0" x2="122" y2="69" gradientUnits="userSpaceOnUse">
<stop stop-opacity="0"/>
<stop offset="1" stop-opacity="0.16"/>
</linearGradient>
<linearGradient id="paint9_linear_2004_4773" x1="122" y1="7.52573e-06" x2="122" y2="69" gradientUnits="userSpaceOnUse">
<stop stop-color="white"/>
<stop offset="1" stop-color="white" stop-opacity="0"/>
</linearGradient>
<radialGradient id="paint10_radial_2004_4773" cx="0" cy="0" r="1" gradientUnits="userSpaceOnUse" gradientTransform="translate(122 12.0407) rotate(90) scale(56.9593 122)">
<stop stop-color="white"/>
<stop offset="1" stop-color="white" stop-opacity="0"/>
</radialGradient>
<linearGradient id="paint11_linear_2004_4773" x1="51.6531" y1="172.497" x2="51.6531" y2="181.497" gradientUnits="userSpaceOnUse">
<stop stop-opacity="0.1"/>
<stop offset="1" stop-opacity="0.3"/>
</linearGradient>
<linearGradient id="paint12_linear_2004_4773" x1="249.603" y1="99.0706" x2="249.603" y2="108.071" gradientUnits="userSpaceOnUse">
<stop stop-opacity="0.1"/>
<stop offset="1" stop-opacity="0.3"/>
</linearGradient>
<linearGradient id="paint13_linear_2004_4773" x1="150.697" y1="122.914" x2="162.267" y2="154.703" gradientUnits="userSpaceOnUse">
<stop stop-opacity="0.1"/>
<stop offset="1" stop-opacity="0.3"/>
</linearGradient>
</defs>
</svg>
